<?xml version="1.0" encoding="utf-8"?>
<!-- Generator: Adobe Illustrator 24.0.0, SVG Export Plug-In . SVG Version: 6.00 Build 0)  -->
<svg version="1.1" id="Layer_1" xmlns="http://www.w3.org/2000/svg" xmlns:xlink="http://www.w3.org/1999/xlink" x="0px" y="0px"
	 viewBox="0 0 864 864" style="enable-background:new 0 0 864 864;" xml:space="preserve">
<path d="M58.5,152.67c1.94,5.27,3.52,10.85,5.24,16.1c1.82,5.37,2.32,10.88,4.27,15.93c2.15,5.29,4.76,10.38,6.36,15.74
	c1.53,4.81,2.39,9.78,3.92,14.59l2.34,7.38c0.52,2,0.99,4.66,2.64,6.08c4,3.88,9.1-0.36,11.92-3.23c3.97-3.66,3.15-7.66,2.17-12.54
	c-0.5-2.22-0.78-4.65,0.68-6.73c1.21-1.67,3.15-2.96,4.68-4.49c2.69-2.55,5.17-5.33,8.08-7.87c2.79-2.43,5.96-5.61,9.34-7.13
	c4.62-1.98,8.44,2.87,12.68,3.27c2.71,0.29,5.11-1.18,6.97-2.8c1.74-1.52,3.82-3.13,4.94-5.13c2.98-5.27-2.61-8.16-6.53-10.07
	c-8.79-4.21-17.72-7.88-25.76-13.35c-4.39-2.92-9.4-4.91-14.28-6.99c-4.87-2.3-9.63-4.71-14.51-6.79
	c-4.23-2.04-8.63-3.32-12.62-5.78c-4.2-2.47-7.73-3.7-11.68-0.25c-2.27,1.16-3.37,4.58-3.2,6.89
	C56.41,147.94,57.56,150.42,58.5,152.67z M84.99,166.61c1.41,0.21,2.97,1.3,4.35,1.94l3.93,1.69c2.77,1.07,5.55,1.91,7.96,3.5
	c5.77,3.57-2.06,7.73-4.73,10.06c-1.63,1.42-3.66,4.01-6.06,3.85c-2.61-0.18-3.63-4.4-4.37-6.42c-1.03-2.58-1.72-5.26-2.53-7.83
	C82.92,171.28,80.97,166.23,84.99,166.61z M123.28,113.49c2.24,3.52,4.07,7.27,6.04,10.94c1.84,3.75,4.45,6.69,6.47,10.16
	c2.34,4,4.06,8.17,6.32,12.03l9.03,15.45c2.18,3.73,3.84,9.01,8.78,9.52c4.33,0.68,8.47-2.63,11.78-4.92
	c4.11-2.76,8.1-5.09,12.36-7.58c4.26-2.49,8.73-4.93,12.24-8.41c4.09-4,7.06-8.41,9.34-13.68c2.15-5.19,2.64-11.38,2.84-16.85
	c0.08-5.05-1.69-9.91-3.73-14.62c-3.45-8.35-8.98-15.66-15.2-22.03c-7.27-7.54-17.81-9.06-27.76-8.97
	c-4.98,0.05-10.56,0.28-15.27,2.32c-4.17,1.73-7.69,3.96-11.32,6.62c-1.71,1.36-3.42,2.71-5.36,3.67c-2.15,0.9-4.46,1.54-6.46,2.7
	c-4.05,2.55-8.3,6.28-6.72,11.44C118.13,105.6,120.88,109.71,123.28,113.49z M144.05,97.06c4.16-2.97,9.63-4.92,14.87-5.12
	s9.88,1.01,14.16,4.05c2.18,1.59,4.01,3.19,5.6,5.3c0.31,0.53,4.19,5.95,4.06,6.03c3.27,5.59,5.22,11.07,5.44,17.55
	c0.07,3.17-0.68,6.47-1.8,9.45c-1.01,2.55-2.69,4.26-4.94,5.92c-1.84,1.43-3.82,2.95-5.87,4.33c-1.52,1.07-3.15,2.56-5.17,3.38
	c-3.22,1.53-4.7-1.01-5.91-3.69c-1.03-2.07-2.34-4-3.72-6.05c-6.54-9.05-11.29-19.31-16.98-29.03c-1.17-2-2.49-4.26-2.97-6.3
	C140.23,100,142.07,98.57,144.05,97.06z M206.01,55.38c-4.17-4.73-1.24-8.9,3.78-10.88c2.32-0.84,5.17-2.03,7.73-1.31
	c2.85,0.61,4.47,3.3,6.23,5.46c3.48,4.65,8.2,8.19,11.25,13c1.77,2.64,3.26,5.38,5.27,7.78c1.81,2.3,3.86,4.34,5.68,6.64
	c1.81,2.3,3.34,4.7,5,7.05c0.96,1.29,4.31,6.48,5.88,3.12c0.83-1.78,0.32-5.03,0.22-7.13c-0.02-2.78,0.05-5.76-0.16-8.63
	c-0.58-5.7-0.62-11.26-0.42-17.07c0.33-6.35-0.31-12.68-0.52-19.17c-0.01-2.29,0.27-4.69,1.79-6.39c1.94-2.34,5.37-3.74,8.18-4.59
	c2.37-0.69,4.73-0.07,6.48,1.6c2.25,2.14,2.22,4.78,2.09,7.61c-0.11,5.61,0.08,11.12,0.32,16.78c0.26,6.63,0.47,13.12,0.58,19.8
	c0.31,6.77-0.06,13.47,0.45,20.34c0.46,6.72,1.46,13.58,0.79,20.38c-0.71,6.66-7.69,8.68-12.96,10.91c-2.66,0.8-5.39,0.96-7.83-0.78
	c-2.09-1.71-3.28-4.55-4.81-6.96c-3.05-4.8-7.06-9.1-10.49-13.6c-3.88-4.83-8.14-9.36-12.1-14c-3.97-4.64-6.45-10.14-10.18-15.03
	C214.3,65.18,210.37,60.2,206.01,55.38z M301.67,25.23c-0.48-2.74-2.55-7.39,0.2-9.59c2.32-1.97,6.61-1.63,9.44-2.44
	c3.47-0.76,6.91-1.68,10.41-2.29c7.47-1.16,14.96-1.37,22.21-3.74c5.36-1.57,16.01-5.16,19.12,1.82c1.11,2.78,1.61,7.39,1.03,10.31
	c-0.81,3.43-4.05,4.63-7.03,5.46c-7.21,1.74-14.67,2.1-21.96,3.39c-3.19,0.56-7.32,1.13-10,2.85c-2.83,1.75-2.03,5.37-1.71,8.13
	c0.48,2.73,1.2,6.84,4.83,6.98c3.63,0.15,7.57-1.48,11.22-2.12c5.6-1.14,16.07-3.92,19.18,3.06c1.24,2.6,1.81,6.73,0.41,9.49
	c-1.65,3.11-4.94,4-8.13,4.56c-0.91,0.16-10.74,2.2-10.74,2.2L340,63.31c-1.82,0.32-3.5,0.61-5.2,0.75
	c-1.7,0.14-3.88,0.21-4.91,1.49s-0.74,2.95-0.34,4.29c0.45,1.65,0.74,3.32,1.03,4.99c0.24,1.37,0.25,3.24,1.35,4.15
	c1.15,1.21,2.97,0.89,4.49,0.62l10.33-1.81c7.02-1.08,14.46-3.32,21.66-3.33c3.45,0.02,6.66,1.34,7.45,4.96
	c0.71,3.17,1.43,7.27,0.39,10.27c-1.44,3.39-4.3,4.04-7.52,4.45c-3.83,0.51-7.78,1.21-11.52,2.18c-7.49,1.94-15.38,2.54-22.9,4.33
	c-3.44,0.92-7.09,1.56-10.58,2.17c-2.86,0.66-7.31,2.06-9.37-0.71c-2.05-2.77-1.74-7.22-2.3-10.41c-0.49-3.67-1.13-7.32-1.46-11.02
	c-0.49-3.67-0.67-7.4-1.46-11.02c-0.64-3.65-1.58-7.24-2.53-10.84c-0.94-3.6-1.25-7.14-1.56-10.69c-0.21-3.88-1.06-7.81-1.57-11.63
	C302.83,32.7,302.49,29,301.67,25.23z M393.75,85.6c-1.64-3.73-0.78-8.81-0.72-12.67c0.13-8.02,0.88-16.03,0.7-24.22
	c-0.33-8.49,0.12-16.97,0.11-25.46c-0.09-3.86-0.49-7.88-0.27-11.73c0.37-3.7,0.28-7.87,3.72-10.13c3.12-2.11,8.04-1.26,11.59-1.05
	c3.85,0.22,6.93,1.04,8.88,4.62c1.8,3.43,3.28,7,5.23,10.43c1.95,3.58,4.68,6.56,7.09,9.99c2.11,3.12,2.97,6.84,4.93,10.11
	c2.1,3.58,4.83,6.87,7.24,10.3c0.9,1.4,4.04,7.78,6.37,6.89c2.17-0.74,1.67-7.53,1.85-9.38c0.17-0.93,0.63-10.33,0.48-10.33
	l0.01-0.31c0.13-8.17-1.59-16.23-0.53-24.24c0.37-3.7,2.27-6.45,5.99-7.46c2.94-0.72,7.58-1.11,10.49,0.33
	c3.36,1.91,4.08,5.31,3.71,8.86c-0.37,4.01-0.75,8.01-0.97,12.02c-0.28,7.56,1.3,15.15,1.02,22.85c-0.22,3.85-1.2,7.7-1.27,11.71
	c-0.06,3.55,0.5,7.26,0.44,10.81c-0.22,4.01-0.75,7.86-0.66,12.03c0.09,3.86,0.79,8.19-3.11,10.6c-2.96,1.96-7.43,1.27-10.82,0.9
	c-4.16-0.38-6.75-2.27-9.17-5.71l-7.39-10.61c-2.26-3.43-3.89-7.16-6-10.75c-2.1-3.74-4.51-7.17-6.77-10.91
	c-2.26-3.59-4.04-7.47-6.3-11.21c-0.6-1.09-1.65-3.11-3.03-3.6c-2.15-0.65-2.35,2.28-2.37,3.67c-0.07,4.01,0.18,8.03-0.04,12.04
	c-0.21,3.55-0.57,6.93-0.63,10.48c-0.06,3.85,0.49,7.88,0.43,11.73c-0.06,3.4,0.18,7.72-1.72,10.62c-2.06,3.36-5.77,3.46-9.31,3.09
	C399.4,89.7,395.24,89.17,393.75,85.6z M497.58,9.21c2.47-5.66,9.27-3.45,14.03-2.88c1.55,0.13,15.01,2.01,14.98,2.17
	c4.55,0.85,9.11,2.48,13.84,3.21c4.91,0.6,9.55,0.99,14.31,2.35c4.62,1.33,8.55,3.79,7.87,9.16c-0.64,4.28-2.29,9.77-7.28,10.41
	s-9.98-2.02-14.94-1.53c-5.11,0.46-5.77,7.4-6.18,11.25c-0.87,9.72-3.69,18.93-4.68,28.47c-0.63,5.06-2.11,9.65-3.17,14.48
	c-0.85,4.55-0.68,10.39-6.26,11.7c-2.11,0.39-4.26,0.15-6.26-0.07c-2.79-0.2-5.39-0.53-7.15-2.9c-3.02-4.02-0.03-9.11,0.76-13.35
	c0.67-4.42,1.31-8.7,1.8-13c0.54-4.61,1.12-9.36,1.97-13.91c1.06-4.83,2.72-9.54,3.62-14.39l1.5-8.04c0.34-1.82,0.4-3.85-1.28-4.95
	c-2.35-1.69-5.86-1.4-8.56-2.06c-2.43-0.45-5.34-0.84-7.44-2.17C494.42,20.24,495.69,13.41,497.58,9.21z M574.57,104.99
	c-3.37-5.9-4.28-13.51-3.86-20.28c0.39-7.11,3.74-13.77,5.82-20.57c1.01-3.08,1.87-6.22,3.16-9.2c1.55-3.21,3.38-6.31,4.78-9.57
	c1.26-3.32,2.23-6.75,3.34-10.12c0.79-2.51,1.41-5.9,3.53-7.57c2.57-1.99,5.86-1.08,8.71-0.33c3.08,1.01,6.57,1.83,8.2,4.92
	c1.69,2.95,0.23,6.36-0.92,9.39c-1.15,3.03-2.82,5.7-4.4,8.56c-1.6,3.35-2.23,6.75-3.25,10.32c-1.03,3.57-2.54,7.12-4.14,10.48
	c-2.68,5.75-5.75,11.68-5.49,18.38c0.23,6.36,4.7,12.84,10.82,15c3.18,1.21,7.33,1.13,10.49,0.18c2.91-0.71,6.38-2.03,8.29-4.45
	c2.21-2.79,3.4-6.79,4.66-10.11c2.46-6.5,4.93-12.99,7.1-19.59c2.01-6.17,5.32-11.85,7.33-18.02c1.09-2.89,2.35-6.2,5.48-7.49
	c3.33-1.38,6.46,0.8,9.18,2.33c2.72,1.53,6,3.76,5.81,7.32c-0.03,1.81-1.06,3.23-1.81,4.76c-0.95,1.62-1.66,3.5-2.17,5.28
	c-0.91,3.28-1.4,6.73-2.66,10.05c-1.46,3.41-2.97,6.96-4.14,10.48c-2.52,6.64-4.55,13.29-8.31,19.29
	c-3.62,6.06-7.65,11.46-13.71,15.26c-5.32,3.59-11.81,4.6-18.05,5.37c-7.17,1.08-13.99-1.84-19.74-5.84
	C583.03,115.29,578.03,111.08,574.57,104.99z M656.65,121.28c-2.07,3.07-4.01,6.23-5.95,9.38c-1.32,2.45-3.31,5.39-3.63,8.27
	c-0.19,2.96,1.85,4.94,4.14,6.53c2.07,1.64,4.96,3.41,7.71,3.65c3.31,0.22,5.29-1.82,6.95-4.24c1.83-2.68,3.58-5.23,5.27-7.99
	c1.21-1.97,2.92-5.63,5.95-4.67c2.29,0.69,4.46,3.65,5.68,5.49c2.91,4.69,4.12,10.68,4.62,16.06c0.6,5.8,2.5,10.96,6.27,15.44
	c1.67,2.3,4.19,4.39,6.55,5.84c2.1,1.29,4.61,1.93,7.06,0.89c5.05-2.33,7.11-9.21,4.07-13.98c-1.46-2.34-3.74-3.93-4.82-6.59
	c-0.95-2.58-1.58-5.68-1.55-8.38c-0.15-2.99,1.42-4.38,4.42-4.53c3.07-0.28,5.85-0.39,8.82-1.1c5.52-1.32,9.83-6.27,13.98-10.07
	c4.52-4.11,5.56-9.63,7.02-15.25c0.58-2.72,1.17-5.44,0.59-8.33c-0.56-2.34-1.59-4.78-2.7-7.1c-2.54-5-5.88-9.59-9.91-13.34
	c-4.09-3.96-9.78-6.19-14.67-8.84c-4.98-2.51-9.09-6.13-13.74-9.17c-5.36-3.66-9.45,0.35-12.8,4.63c-3.22,4.36-5.92,9.04-8.48,13.8
	c-2.92,5.63-6.23,11.02-9.63,16.54C668.37,104.58,657.7,119.57,656.65,121.28z M687.54,110.21c1.94-3.15,3.53-6.34,5.21-9.66
	c1.03-2.27,3.01-6.66,5.95-7.03c2.78-0.1,5.29,2.89,7.52,4.26c2.5,1.54,5.53,2.49,7.79,4.42c2.12,1.85,4.13,5.07,4.57,7.88
	c1.31,6.42-4.08,12.53-10.28,13.79c-2.81,0.45-6.64-0.1-9.33-1.03c-3.29-1.12-5.33-4-8.38-5.51
	C687.56,115.47,685.36,113.76,687.54,110.21z M739.8,163.61c2.46-2.77,4.69-5.74,6.91-8.72c2.23-2.97,4.81-5.42,7.4-7.87
	c2.91-2.58,5.45-5.68,8.13-8.46c2.56-2.89,5.25-5.45,7.7-8.44c1.84-2.08,4.2-6.59,7.63-5.81c2.98,0.59,5.38,4.16,7.78,5.88
	c2.76,2.24,5.61,4.37,8.27,6.72c5.55,5.13,10.37,10.86,16.74,15.07c4.56,3.23,14,9.33,10.46,16.1c-1.48,2.6-4.79,5.86-7.44,7.22
	c-3.19,1.5-6.14-0.29-8.65-2.11c-5.84-4.57-10.77-10.18-16.31-15.1c-2.42-2.15-5.43-5.03-8.45-6.06c-3.13-1.13-5.47,1.75-7.43,3.72
	c-1.85,2.07-4.61,5.19-2.47,8.12c2.14,2.93,5.87,5,8.64,7.46c4.37,3.67,13.06,10.15,9.53,16.92c-1.27,2.59-4.15,5.6-7.17,6.22
	c-3.46,0.64-6.2-1.38-8.62-3.53c-0.69-0.62-8.4-7.04-8.4-7.04l-0.12-0.1c-1.38-1.23-2.65-2.36-3.82-3.6
	c-1.17-1.24-2.58-2.91-4.22-2.92c-1.64-0.01-2.77,1.26-3.57,2.4c-1.01,1.37-2.14,2.64-3.27,3.91c-0.92,1.04-2.38,2.22-2.41,3.64
	c-0.23,1.65,1.15,2.88,2.31,3.9l7.84,6.97c5.21,4.83,11.59,9.25,16.07,14.89c2.13,2.71,3.09,6.04,0.75,8.92
	c-2.04,2.53-4.8,5.64-7.8,6.69c-3.55,0.98-5.84-0.85-8.16-3.12c-2.78-2.68-5.78-5.34-8.87-7.67c-6.18-4.66-11.55-10.46-17.63-15.24
	c-2.86-2.12-5.63-4.58-8.28-6.94c-2.3-1.83-6.17-4.44-5.27-7.78s4.57-5.85,6.72-8.27c2.57-2.66,5.03-5.43,7.72-8
	C734.65,168.94,737.46,166.48,739.8,163.61z M133.99,652.34c-8.76-6.89-18.48-10.33-29.15-10.33c-13.14,0-25.46,5.25-36.95,15.74
	c-11.77,10.77-20.21,26.74-25.32,47.9c-0.18,0.73-0.27,1.46-0.27,2.19c0,0.92,0.23,1.78,0.68,2.6c1.28,2.1,3.1,3.15,5.47,3.15
	c1.28,0,2.42-0.32,3.42-0.96c1.55-0.91,2.55-2.28,3.01-4.11c4.29-17.15,10.35-29.75,18.2-37.78c7.85-8.03,15.97-12.04,24.36-12.04
	c9.12,0,16.63,5.02,22.51,15.06c5.89,10.04,8.83,24,8.83,41.88c0,8.12-0.37,16.42-1.09,24.91c-10.22-5.75-20.53-8.62-30.93-8.62
	c-11.68,0-21.58,3.01-29.7,9.03c-8.12,6.02-13.32,12.41-15.6,19.16c-2.28,6.75-3.42,12.32-3.42,16.7c0,16.06,8.16,29.02,24.5,38.87
	c9.31,5.66,21.99,9.35,38.05,11.08c-2.37,8.58-4.56,15.55-6.57,20.94c-0.27,0.82-0.41,1.6-0.41,2.33c0,3.65,2.28,6.71,6.84,9.17
	c5.47,3.01,9.92,4.56,13.34,4.65c3.42,0.09,5.31,0.14,5.68,0.14c6.02,0,9.72-1.78,11.09-5.34c4.74-12.04,9.44-29.51,14.1-52.42
	c5.2-25.55,7.85-50.04,7.94-73.49c0-19.89-2.56-36.45-7.67-49.68C149.72,669.48,142.75,659.23,133.99,652.34z M114,814.18
	c-13.14-1.82-23.27-5.79-30.38-11.91c-8.3-7.12-12.82-13.32-13.55-18.61c-0.73-5.29-1.09-8.76-1.09-10.4
	c0-6.75,1.96-12.77,5.89-18.07c4.83-6.66,12.13-9.99,21.9-9.99c9.76,0,19.57,3.24,29.42,9.72C124.18,770.8,120.12,790.55,114,814.18
	z M349.61,688.61c3.24,20.03,4.86,40.53,4.86,61.52c0,6.02-0.34,13.28-1.03,21.76c-0.68,8.48-1.96,17.2-3.83,26.14
	c-1.87,8.94-4.54,17.29-8.01,25.05c-3.47,7.76-7.96,14.1-13.48,19.02c-5.52,4.93-12.34,7.39-20.46,7.39c-8.3,0-16.1-3.88-23.4-11.63
	c-11.32-12.05-18.39-34.85-21.21-68.43c-7.66,21.26-15.56,35.49-23.68,42.7c-5.75,5.11-11.95,7.67-18.61,7.67
	c-6.21,0-12.18-2.21-17.93-6.64c-5.75-4.42-10.47-10.81-14.17-19.16c-3.7-8.35-5.54-18.41-5.54-30.17c0-16.88,2.71-35.24,8.14-55.09
	c5.43-19.85,12.61-37.34,21.55-52.49c1.55-2.64,3.97-3.97,7.25-3.97c7.12,0,13.91,3.61,20.39,10.81c2.74,3.01,4.11,6.07,4.11,9.17
	c0,1.64-0.46,3.28-1.37,4.93c-8.67,15.69-15.49,32.96-20.46,51.8c-4.97,18.84-7.46,35.06-7.46,48.66c0,16.97,3.24,25.46,9.72,25.46
	c2.92,0,6.43-2.58,10.54-7.73c4.11-5.15,8.26-13.16,12.45-24.02c5.38-13.96,9.72-29.29,13-45.98c0.73-3.19,2.92-5.68,6.57-7.46
	c3.65-1.78,7.89-2.67,12.73-2.67c4.83,0,9.14,0.91,12.93,2.74c3.79,1.83,5.68,4.56,5.68,8.21c-0.18,15.7-0.27,31.16-0.27,46.4
	c0,13.32,0.36,25.73,1.09,37.23c0.46,7.85,1.89,13.66,4.31,17.45c2.42,3.79,5,5.68,7.73,5.68c4.11,0,7.73-2.26,10.88-6.78
	c3.15-4.51,5.91-10.22,8.28-17.11c2.37-6.89,4.31-14.16,5.82-21.83c1.5-7.67,2.64-14.85,3.42-21.55c0.77-6.71,1.16-11.88,1.16-15.53
	c0-20.25-1.53-39.99-4.58-59.19c-3.06-19.2-6.5-34.15-10.33-44.82c-0.27-0.73-0.41-1.46-0.41-2.19c0-3.01,1.46-5.06,4.38-6.16
	c0.82-0.27,1.6-0.41,2.33-0.41c2.92,0,4.88,1.41,5.89,4.24C342.7,652.92,346.37,668.59,349.61,688.61z M460.13,652.34
	c-8.76-6.89-18.48-10.33-29.15-10.33c-13.14,0-25.46,5.25-36.95,15.74c-11.77,10.77-20.21,26.74-25.32,47.9
	c-0.18,0.73-0.27,1.46-0.27,2.19c0,0.92,0.23,1.78,0.68,2.6c1.28,2.1,3.1,3.15,5.47,3.15c1.28,0,2.42-0.32,3.42-0.96
	c1.55-0.91,2.55-2.28,3.01-4.11c4.29-17.15,10.35-29.75,18.2-37.78c7.85-8.03,15.97-12.04,24.36-12.04
	c9.12,0,16.63,5.02,22.51,15.06c5.89,10.04,8.83,24,8.83,41.88c0,8.12-0.37,16.42-1.09,24.91c-10.22-5.75-20.53-8.62-30.93-8.62
	c-11.68,0-21.58,3.01-29.7,9.03c-8.12,6.02-13.32,12.41-15.6,19.16c-2.28,6.75-3.42,12.32-3.42,16.7c0,16.06,8.16,29.02,24.5,38.87
	c9.31,5.66,21.99,9.35,38.05,11.08c-2.37,8.58-4.56,15.55-6.57,20.94c-0.27,0.82-0.41,1.6-0.41,2.33c0,3.65,2.28,6.71,6.84,9.17
	c5.47,3.01,9.92,4.56,13.34,4.65c3.42,0.09,5.31,0.14,5.68,0.14c6.02,0,9.72-1.78,11.09-5.34c4.74-12.04,9.44-29.51,14.1-52.42
	c5.2-25.55,7.85-50.04,7.94-73.49c0-19.89-2.56-36.45-7.67-49.68C475.86,669.48,468.88,659.23,460.13,652.34z M440.14,814.18
	c-13.14-1.82-23.27-5.79-30.38-11.91c-8.3-7.12-12.82-13.32-13.55-18.61c-0.73-5.29-1.09-8.76-1.09-10.4
	c0-6.75,1.96-12.77,5.89-18.07c4.83-6.66,12.13-9.99,21.9-9.99c9.76,0,19.57,3.24,29.42,9.72
	C450.32,770.8,446.26,790.55,440.14,814.18z M549.22,737.54c0,32.48,2.19,64.83,6.57,97.04v0.68c0,3.38-1.71,6.04-5.13,8.01
	c-3.42,1.96-8.05,2.99-13.89,3.08c-5.11,0-9.67-0.91-13.69-2.73c-7.57-3.47-11.36-29.93-11.36-79.38c0-26,1.73-52.01,5.2-78.01
	c0.64-4.93,1.46-9.85,2.46-14.78c1-4.93,5.38-7.39,13.14-7.39c4.01,0,8.16,0.84,12.45,2.53c4.29,1.69,6.43,4.54,6.43,8.55
	C549.95,696.12,549.22,716.92,549.22,737.54z M553.46,626.61c3.1,3.15,4.65,6.96,4.65,11.43c0,4.93-1.62,8.94-4.86,12.05
	c-3.24,3.1-7.28,4.65-12.11,4.65c-4.84-0.09-8.81-1.73-11.91-4.93c-3.1-3.19-4.65-7.12-4.65-11.77c0.09-4.74,1.73-8.62,4.93-11.63
	c3.19-3.01,7.12-4.51,11.77-4.51C546.3,621.89,550.36,623.47,553.46,626.61z M697.58,750.13c0.91,1.19,1.37,2.46,1.37,3.83
	c0,1.74-1.23,9.26-3.7,22.58c-8.58,47.26-25.78,70.89-51.6,70.89c-18.25,0-32.48-8.62-42.7-25.87
	c-9.49-15.96-14.23-36.31-14.23-61.04c0-14.14,0.87-28.42,2.6-42.84l-16.01,0.14c-1.82,0-3.38-0.61-4.65-1.85
	c-1.28-1.23-1.92-2.76-1.92-4.59c0-1.82,0.62-3.35,1.85-4.59c1.23-1.23,2.76-1.85,4.59-1.85l18.07-0.27
	c5.47-34.39,13.73-60.99,24.77-79.79c1.82-3.19,4.56-4.79,8.21-4.79c6.66,0,13.41,3.42,20.26,10.26c3.47,3.47,5.2,6.71,5.2,9.72
	c0,0.91-0.18,1.78-0.55,2.6c-6.84,16.06-12.45,36.54-16.83,61.45l29.84-0.27c1.92,0,3.49,0.62,4.72,1.85
	c1.23,1.23,1.85,2.76,1.85,4.58c0,1.83-0.59,3.38-1.78,4.66c-1.19,1.28-2.74,1.91-4.65,1.91l-32.16,0.41
	c-3.83,25.27-5.75,48.4-5.75,69.39c0,16.61,1.85,28.7,5.54,36.27c3.7,7.57,8.28,11.36,13.76,11.36c18.79,0,31.8-20.25,39-60.77
	c1.64-9.49,2.74-16.29,3.28-20.39c0.27-1.82,1.03-3.21,2.26-4.17s2.58-1.44,4.04-1.44C694.52,747.53,696.3,748.4,697.58,750.13z
	 M817.26,785.85c2.96,4.93,4.45,11,4.45,18.2c0,7.85-2.42,14.51-7.25,19.98c-4.84,5.48-11.09,9.63-18.75,12.45
	c-7.03,2.55-14.6,3.83-22.72,3.83c-0.73,0-3.56-0.07-8.49-0.21c-4.93-0.13-11.63-2.07-20.12-5.82
	c-19.07-8.3-30.89-23.68-35.45-46.12c-0.18-0.82-0.27-1.6-0.27-2.33c0-0.91,0.32-1.87,0.96-2.88c1.1-1.73,2.87-2.6,5.34-2.6
	c3.28,0,5.34,1.74,6.16,5.2c2.19,9.4,5.75,17.15,10.67,23.27c4.93,6.11,10.49,10.67,16.7,13.68c6.2,3.01,12.36,4.52,18.48,4.52
	c5.57,0,10.24-1.41,14.03-4.24c3.79-2.83,5.68-7.07,5.68-12.73c0-4.11-1.19-7.59-3.56-10.47c-2.37-2.88-5.52-5.48-9.44-7.8
	c-3.92-2.33-8.35-4.63-13.28-6.91c-5.84-2.64-11.86-5.82-18.07-9.51c-6.21-3.7-11.95-8.35-17.24-13.96
	c-5.29-5.61-9.6-12.73-12.93-21.35c-3.33-8.62-5-19.32-5-32.1c0-13.23,2.53-25,7.6-35.31c5.06-10.31,11.45-18.41,19.16-24.29
	c7.71-5.89,15.62-8.83,23.75-8.83c7.39,0,14.32,3.06,20.8,9.17c6.48,6.11,11.93,15.88,16.36,29.29c4.42,13.41,7.09,31.16,8.01,53.24
	c0,1.73-0.53,3.17-1.57,4.31c-1.05,1.14-2.58,1.71-4.59,1.71c-1.64,0-3.1-0.55-4.38-1.64c-1.28-1.1-1.96-2.55-2.05-4.38
	c-1.01-16.42-2.92-30.27-5.75-41.54c-2.83-11.27-6.18-19.82-10.06-25.66c-3.88-5.84-7.82-8.76-11.84-8.76
	c-2.65,0-5.23,1.35-7.73,4.04c-2.51,2.69-4.59,6.77-6.23,12.25c-1.64,5.48-2.46,12.45-2.46,20.94c0,10.22,1.3,18.93,3.9,26.14
	c2.6,7.21,6.02,13.41,10.26,18.61c4.24,5.2,8.92,9.74,14.03,13.62c5.11,3.88,10.26,7.46,15.47,10.74
	c5.66,3.56,10.9,7.25,15.74,11.09C810.4,776.55,814.3,780.93,817.26,785.85z M30.45,505.94c-0.68-0.68-0.82-1.23-0.41-1.5
	c0.27-0.27,0.82-0.27,1.36,0c0.96-0.95,1.64-1.5,1.91-1.5c5.18-0.27,10.23-0.14,15.01,0.55c4.91,0.68,9.82,0.68,15.01,0
	c4.78-0.68,9.55-1.64,14.19-2.86c4.64-1.37,9.28-3.14,13.78-5.32c4.78-2.32,9.55-4.77,14.05-7.23c-6.41-1.64-12.14-4.37-16.92-8.32
	c-0.95-0.55-1.23-1.5-0.68-2.59c0.41-1.09,1.09-1.64,2.18-1.64c4.5,0.27,8.6,0.68,12.55,1.09c3.82,0.55,7.78-0.14,12.01-2.18
	c0.96-0.55,1.91-1.09,2.73-1.37c0.68-0.27,1.64-0.82,2.59-1.5c0-0.27,0.14-0.55,0.27-0.68c0.14-0.14,0.27-0.41,0.27-0.68
	c-4.23,2.18-8.05,3.14-11.6,2.86c-0.68,0-1.23-0.27-1.77-0.95c-0.41-0.68-0.55-1.36-0.27-1.91c0.68-2.05,1.37-3.82,2.05-5.32
	c-3.55,1.5-7.23,2.73-11.19,3.55c-3.82,0.82-7.5,0.41-11.05-1.23c-2.32,0.41-4.5,0.41-6.82,0c-0.68,0-0.96-0.27-1.23-0.95
	c-0.14-0.68,0.14-1.09,0.82-1.36c2.59-1.36,5.32-2.32,8.19-3c2.86-0.55,5.59-1.5,8.19-2.86c2.59-1.23,5.18-2.59,7.78-3.82
	c2.59-1.36,4.78-2.87,6.68-4.91c1.64-1.5,3.27-3.14,4.91-4.78c1.64-1.64,2.86-3.27,3.82-4.78c0.96-2.32,0.27-3.27-2.18-3
	c-2.46,0.41-4.23,0.55-5.59,0.55c-1.23,0.27-1.91-0.14-2.18-1.23c-0.14-1.09,0.27-2.05,1.23-2.59c2.32-1.64,4.37-3.41,6.28-5.18
	c1.91-1.64,3.68-3.82,5.32-6.41c-4.78,4.5-10.51,8.05-17.19,10.78c-6.55,2.73-13.1,4.78-19.51,6.14c-3.55,0.55-7.23,0.96-11.05,1.09
	c-3.96,0.27-7.64-0.14-11.19-1.09c-4.09-1.36-8.05-3-11.73-4.91c-3.82-1.91-7.37-3.96-10.91-6.28c-1.36-0.27-2.46-0.96-3.41-1.91
	c-1.23-0.96-1.64-2.05-0.96-3.41c0.68-1.23,1.77-1.37,3.41-0.41c0.68,0.27,1.23,0.55,1.91,0.96c0.68,0.27,1.23,0.82,1.91,1.36
	c4.91,2.32,9.96,3.14,15.28,2.46c5.32-0.68,10.51-1.64,15.69-2.86c1.91-0.68,3.96-1.36,6-1.91c2.05-0.68,4.09-1.36,6-1.91
	c0.96-0.68,2.18-1.23,3.41-1.77c1.23-0.41,2.46-1.23,3.41-2.18c1.23-0.96,1.91-2.05,1.91-3.14c0-1.09-1.09-1.36-3.41-0.68
	c-1.64,0.27-2.59-0.27-2.87-1.77c-0.27-1.36,0.27-2.32,1.91-2.59c7.37-1.64,14.05-4.37,19.78-8.46c5.87-3.96,11.32-8.73,16.51-14.19
	c-3.55,2.46-7.37,4.64-11.46,6.28c-3.96,1.5-7.78,2.05-11.32,1.36c-1.64,0-3.14-0.41-4.5-1.23c-1.5-0.68-2.59-1.5-3.27-2.18
	c-5.05,0.68-9.69-0.14-13.64-2.59c-4.09-2.46-8.05-5.32-11.87-9c-0.96-0.96-1.09-1.91-0.27-3c0.82-1.23,1.91-1.5,3.14-0.82
	c6.14,3.82,13.1,4.78,20.74,2.73c7.78-2.18,14.32-4.64,19.78-7.5c6.55-3.96,11.73-7.91,15.55-12.14
	c-6.14,0.68-12.42-0.14-18.83-2.32c-1.64-0.68-2.18-1.77-1.77-3.41c0.55-1.64,1.64-2.18,3.14-1.5c2.59,0.41,6-0.27,10.23-1.91
	c-1.64,0-3.27-0.55-4.91-1.5c-0.55-0.27-0.96-0.68-0.96-1.36c-5.46,0-10.64-0.96-15.42-3c-1.23-0.55-2.46-1.09-3.41-1.36
	c-0.96-0.41-2.05-0.82-3.41-1.5c-0.55-0.55-0.82-1.23-0.41-1.91c0.27-0.68,0.96-0.96,1.91-0.96c8.73,1.64,16.92,1.09,24.69-1.64
	c7.64-2.73,15.28-6.69,22.65-11.87c1.91-1.64,3.82-3.14,5.73-4.64c2.05-1.36,3.96-3,5.87-4.5c-3.27,0.55-6.41,0.55-9.41-0.27
	c-3.14-0.82-5.46-2.46-6.96-5.05c-0.68-2.32,0.14-3.14,2.32-2.46c1.91,0.95,3.82,1.77,5.59,2.46c1.77,0.55,3.96,0.14,6.55-1.5
	c1.23-0.68,2.46-1.5,3.55-2.46c1.23-0.96,2.18-1.77,3.14-2.32c2.32-1.64,4.91-3.14,7.78-4.37v-2.46h-1.91
	c-2.32-0.27-4.91-0.27-7.78,0c-2.86,0.41-5.73,0.55-8.46,0.68c-2.73,0.27-5.32,0-7.78-0.41c-2.32-0.55-4.5-2.05-6.41-4.64
	c-0.27-0.55-0.27-1.23,0.27-1.64c0.41-0.55,0.96-0.55,1.64-0.27c2.59,0.68,4.91,1.36,6.96,2.18c2.18,0.82,4.5,0.14,7.09-2.18
	c1.23-0.96,2.46-1.77,3.55-2.59c1.09-0.82,2.32-1.77,3.68-2.73c0.55-0.27,1.23-0.55,1.91-0.68c0.68-0.14,1.23-0.41,1.91-0.68
	c0-0.41,0.27-0.82,0.96-1.5c-3.82,1.64-7.64,2.05-11.6,1.5c-0.96,0-1.64-0.41-1.91-1.23c-0.27-0.82-0.14-1.5,0.41-2.18
	c1.64-2.32,3.68-4.09,5.87-5.32c-4.77,0.96-9.96,0.82-15.42-0.27c-5.46-1.09-10.78-2.46-15.96-4.09c-6.41-0.68-11.73-3-15.96-7.23
	c-1.23-1.37-1.5-2.46-0.41-3.41c0.96-0.95,2.05-1.09,3.27-0.41c2.32,0.96,4.5,1.91,6.55,3c2.05,1.23,4.5,2.32,6.96,3.28
	c2.59,0.27,5.46,0.14,8.46-0.55c3.14-0.68,6-1.23,8.46-1.91c3.55-1.64,6.96-3.41,10.23-5.32c3.14-1.91,5.87-4.5,8.19-7.78
	c-2.59,0.96-5.18,1.77-7.78,2.18c-2.59,0.55-4.77,0.68-6.68,0.68c-2.59,0-5.18-0.27-7.5-0.96c-2.46-0.55-4.5-1.77-6.14-3.27
	c-1.91-0.95-3.41-2.18-4.78-3.41c-0.68-0.27-0.82-0.82-0.41-1.5c0.27-0.55,0.68-0.96,1.36-0.96c0.41,0,0.68,0.14,0.95,0.55
	c0-1.36,0.68-1.64,1.91-0.95c0,0.27,0.14,0.41,0.27,0.41c0.14,0,0.27,0.14,0.27,0.55c2.86,0.27,5.59,0.55,8.19,0.68
	c2.59,0.14,5.32-0.27,8.19-1.23c6.14-2.18,11.32-6.28,15.55-12.01c4.5-5.46,7.64-11.46,9.41-17.87c1.77-6.41,2.46-13.37,2.18-20.74
	c0-0.41,0.14-0.68,0.41-0.82c0.41-0.14,0.68,0.14,0.95,0.82c0,0.27,0.14,0.41,0.27,0.41c0.14,0,0.27,0.14,0.27,0.55
	c0-0.41,0-0.55,0.14-0.55c0.27,0,0.27-0.14,0.27-0.41c0.41-0.68,0.68-0.96,0.95-0.82c0.41,0.14,0.55,0.41,0.55,0.82
	c-0.27,7.37,0.41,14.32,2.18,20.74c1.77,6.41,4.91,12.42,9.41,17.87c4.23,5.73,9.28,9.82,15.42,12.01c2.87,0.96,5.73,1.36,8.19,1.23
	c2.59-0.14,5.32-0.41,8.19-0.68l1.09-0.95c0.96-0.96,1.36-0.68,1.36,0.95l0.96-0.55c0.68,0,1.23,0.41,1.5,0.96
	c0.27,0.68,0.14,1.23-0.55,1.5c-1.23,1.23-2.86,2.46-4.77,3.41c-1.64,1.5-3.55,2.73-6,3.27c-2.46,0.68-4.91,0.96-7.51,0.96
	c-1.91,0-4.23-0.14-6.82-0.68c-2.59-0.41-5.05-1.23-7.64-2.18c2.18,3.27,4.91,5.87,8.19,7.78c3.14,1.91,6.55,3.68,10.1,5.32
	c2.59,0.68,5.46,1.23,8.46,1.91c3.14,0.68,6,0.82,9,0.55c2.18-0.95,4.37-2.05,6.41-3.28c2.18-1.09,4.37-2.05,6.55-3
	c1.36-0.68,2.46-0.55,3.41,0.41c0.96,0.95,0.82,2.05-0.41,3.41c-4.23,4.23-9.55,6.55-15.96,7.23c-5.18,1.64-10.5,3-15.96,4.09
	c-5.46,1.09-10.64,1.23-15.42,0.27c1.23,0.68,2.05,1.23,2.32,1.91c0.95,0,1.77,0.27,2.46,0.96c8.05,3.27,16.1,3.68,24.15,1.5
	c0.68-0.41,1.09-0.14,1.5,0.41c0.27,0.68,0.14,1.23-0.55,1.5c-6.41,5.18-14.33,7.37-23.74,6.68c-1.23,0-2.73,0-4.23-0.14
	c-1.64-0.14-3.27-0.41-4.91-0.82c0.68,0.68,1.5,1.36,2.46,1.91c0.96,0.68,2.05,1.36,3.41,2.05c0.55,0.27,0.82,0.95,0.68,2.18
	c-0.14,1.09-0.68,1.5-1.64,1.09c-5.18-0.55-9.41-1.91-12.55-3.82h-0.96v6.28c0.55,0.41,1.36,0.96,2.32,1.91
	c2.59,3.55,5.73,6.69,9.41,9.41c3.68,2.73,7.91,4.09,12.42,4.09c0.55,0,0.95,0.27,1.09,0.82c0.27,0.41,0,0.82-0.68,1.23
	c-2.87,1.23-6.41,1.91-10.64,1.91c1.64,1.64,3.27,3,5.05,4.37c1.77,1.23,3.55,2.46,5.18,3.82c7.37,5.18,15.01,9.14,22.92,11.87
	c7.91,2.73,15.96,3.27,24.28,1.64c1.09,0,1.64,0.27,2.05,0.96c0.27,0.68,0.14,1.36-0.55,1.91c-1.23,0.68-2.46,1.09-3.41,1.5
	c-0.95,0.27-2.05,0.82-3.27,1.36c-4.91,2.05-10.1,3-15.55,3c0,0.68-0.27,1.09-0.96,1.36c-3.14,2.32-7.09,2.73-11.6,1.23
	c-4.5-1.36-8.46-3.41-12.01-6c0.55,1.23,1.36,2.46,2.18,3.68c0.82,1.09,1.5,2.05,2.18,3.14c3.14,2.46,6.82,4.23,11.05,5.18
	c4.23,1.09,7.5,0.41,10.1-1.91c0.96-0.55,2.05-0.55,3.14,0c1.23,0.68,1.36,1.64,0.82,3c-3,3.82-7.23,6-13.1,6.68
	c3.27,2.59,6.82,5.18,10.64,7.78c5.46,2.86,12.01,5.32,19.78,7.5c7.78,2.05,14.73,1.09,20.74-2.73c1.37-0.68,2.32-0.41,3.14,0.82
	c0.82,1.09,0.82,2.05-0.14,3c-3.96,3.68-7.91,6.55-11.87,9c-4.09,2.46-8.6,3.27-13.78,2.59c-0.68,0.68-1.64,1.5-3.14,2.18
	c-1.5,0.82-3,1.23-4.64,1.23c-3.55,0.68-7.23,0.14-11.32-1.36c-3.96-1.64-7.78-3.82-11.32-6.28c5.19,5.46,10.64,10.23,16.37,14.19
	c5.87,4.09,12.42,6.82,19.78,8.46c1.64,0.27,2.32,1.23,2.05,2.59c-0.41,1.5-1.37,2.05-3,1.77c-2.18-0.68-3.27-0.41-3.27,0.68
	c0,1.09,0.55,2.18,1.91,3.14c0.01,0.01,0.02,0.01,0.03,0.02c-6.07,3.45-11.7,8.35-16.9,13.91c-4.34-2.29-8.49-4.86-12.18-8.07
	c1.64,2.59,3.41,4.77,5.32,6.41c1.46,1.35,3.13,2.66,4.79,3.96c-1.37,1.53-2.71,3.06-4.02,4.63c-0.32-0.05-0.57-0.06-0.9-0.12
	c-2.46-0.27-3.27,0.68-2.18,3c0.1,0.15,0.23,0.31,0.33,0.47c-1.99,2.47-3.94,4.93-5.79,7.31c-3.4,4.35-7.19,9.2-9.57,11.48
	c-31.76,10.71-54.9,39.06-71.9,59.86c-7.79,9.55-17.5,21.44-21.76,22.59c-2.13,0.57-5.16,2.1-8.71,4.16H99.89
	c0.96-0.14,2.05-0.41,3-0.68c0.68,0,1.64-0.14,2.87-0.41c1.36-0.41,2.59-0.82,3.68-1.23c1.09-0.55,1.77-0.95,2.18-1.5
	c0.27-0.41-0.14-0.82-1.5-1.23c-1.64-0.55-3.41-0.96-5.32-0.96c-1.91,0-3.68-0.27-5.32-0.96c-1.91-0.55-2.05-1.77-0.41-3.41
	c0.95-1.23,2.59-2.46,4.78-3.82c-1.64,0.41-3.14,0.41-4.5,0.27c-1.5-0.14-3-0.27-4.64-0.27c-2.87-0.68-5.73-1.23-8.46-1.64
	c-2.73-0.55-5.32-1.5-7.91-3.14c-2.59-1.36-4.91-3-6.82-5.05c-1.91-2.18-4.23-3.14-6.82-3.14c-1.23,0-1.91-0.55-2.05-1.5
	c-0.27-0.95,0.41-1.77,1.64-2.46c1.91-0.55,3.55-1.09,4.78-1.36c1.36-0.68,2.46-0.95,3.41-0.95c0.96,0-0.14-0.27-3.41-0.55
	c-2.46,0-5.05,0.14-7.5,0.27c-2.32,0.14-4.91,0.27-7.37,0.27c-4.5,0-8.87-0.55-12.82-1.77C37.27,510.31,33.72,508.4,30.45,505.94z
	 M291.02,339.62c0.55-1.23,1.64-1.37,3.27-0.41c0.68,0.27,1.36,0.55,1.91,0.95c0.68,0.27,1.36,0.82,2.05,1.36
	c4.77,2.32,9.82,3.14,15.14,2.46c5.32-0.68,10.37-1.64,15.28-2.86c2.18-0.68,4.37-1.36,6.28-1.91c1.91-0.68,3.96-1.36,6.28-1.91
	c0.95-0.68,2.05-1.23,3.27-1.77c1.36-0.41,2.46-1.23,3.41-2.18c1.37-0.96,1.91-2.05,1.91-3.14c0-1.09-1.09-1.36-3.27-0.68
	c-1.64,0.27-2.59-0.27-3-1.77c-0.27-1.36,0.41-2.32,2.05-2.59c7.37-1.64,13.92-4.37,19.78-8.46c5.73-3.96,11.19-8.73,16.37-14.19
	c-3.55,2.46-7.37,4.64-11.32,6.28c-4.09,1.5-7.78,2.05-11.32,1.36c-1.64,0-3.14-0.41-4.64-1.23c-1.5-0.68-2.46-1.5-3.14-2.18
	c-5.18,0.68-9.69-0.14-13.78-2.59c-3.96-2.46-7.91-5.32-11.87-9c-0.95-0.96-0.95-1.91-0.14-3c0.82-1.23,1.77-1.5,3.14-0.82
	c6,3.82,12.96,4.78,20.74,2.73c7.78-2.18,14.32-4.64,19.78-7.5c3.82-2.59,7.37-5.19,10.64-7.78c-5.87-0.68-10.1-2.87-13.1-6.69
	c-0.55-1.36-0.41-2.32,0.82-3c1.09-0.55,2.18-0.55,3.14,0c2.59,2.32,5.87,3,10.1,1.91c4.23-0.96,7.91-2.73,11.05-5.18
	c0.68-1.09,1.36-2.05,2.18-3.14c0.82-1.23,1.64-2.46,2.18-3.68c-3.55,2.59-7.5,4.64-12.01,6c-4.5,1.5-8.46,1.09-11.6-1.23
	c-0.68-0.27-0.96-0.68-0.96-1.36c-5.46,0-10.64-0.96-15.55-3c-1.23-0.55-2.32-1.09-3.27-1.36c-0.96-0.41-2.18-0.82-3.41-1.5
	c-0.68-0.55-0.82-1.23-0.55-1.91c0.41-0.68,0.96-0.96,2.05-0.96c8.32,1.64,16.37,1.09,24.28-1.64c7.91-2.73,15.55-6.69,22.92-11.87
	c1.64-1.36,3.41-2.59,5.18-3.82c1.77-1.37,3.41-2.73,5.05-4.37c-4.23,0-7.78-0.68-10.64-1.91c-0.68-0.41-0.96-0.82-0.68-1.23
	c0.14-0.55,0.55-0.82,1.09-0.82c4.5,0,8.73-1.36,12.42-4.09c3.68-2.73,6.82-5.87,9.41-9.41c0.96-0.96,1.77-1.5,2.32-1.91v-6.28
	h-0.96c-3.14,1.91-7.37,3.27-12.55,3.82c-0.96,0.41-1.5,0-1.64-1.09c-0.14-1.23,0.14-1.91,0.68-2.18c1.36-0.68,2.46-1.36,3.41-2.05
	c0.96-0.55,1.77-1.23,2.46-1.91c-1.64,0.41-3.27,0.68-4.91,0.82c-1.5,0.14-3,0.14-4.23,0.14c-9.41,0.68-17.33-1.5-23.74-6.68
	c-0.68-0.27-0.82-0.82-0.55-1.5c0.41-0.55,0.82-0.82,1.5-0.41c8.05,2.18,16.1,1.77,24.15-1.5c0.68-0.68,1.5-0.95,2.46-0.95
	c0.27-0.68,1.09-1.23,2.32-1.91c-4.78,0.95-9.96,0.82-15.42-0.27c-5.46-1.09-10.78-2.46-15.96-4.09c-6.41-0.68-11.73-3-15.96-7.23
	c-1.23-1.36-1.36-2.46-0.41-3.41c0.96-0.96,2.05-1.09,3.41-0.41c2.18,0.96,4.37,1.91,6.55,3c2.05,1.23,4.23,2.32,6.41,3.27
	c3,0.27,5.87,0.14,9-0.55c3-0.68,5.87-1.23,8.46-1.91c3.55-1.64,6.96-3.41,10.1-5.32c3.27-1.91,6-4.5,8.19-7.78
	c-2.59,0.95-5.05,1.77-7.64,2.18c-2.59,0.55-4.91,0.68-6.82,0.68c-2.59,0-5.05-0.27-7.5-0.96c-2.46-0.55-4.37-1.77-6-3.27
	c-1.91-0.95-3.55-2.18-4.77-3.41c-0.68-0.27-0.82-0.82-0.55-1.5c0.27-0.55,0.82-0.96,1.5-0.96l0.96,0.55c0-1.64,0.41-1.91,1.36-0.96
	l1.09,0.96c2.86,0.27,5.59,0.55,8.19,0.68c2.46,0.14,5.32-0.27,8.19-1.23c6.14-2.18,11.19-6.28,15.42-12.01
	c4.5-5.46,7.64-11.46,9.41-17.87c1.77-6.41,2.46-13.37,2.18-20.74c0-0.41,0.14-0.68,0.55-0.82c0.27-0.14,0.55,0.14,0.95,0.82
	c0,0.27,0,0.41,0.27,0.41c0.14,0,0.14,0.14,0.14,0.55c0-0.41,0.14-0.55,0.27-0.55c0.14,0,0.27-0.14,0.27-0.41
	c0.27-0.68,0.55-0.95,0.96-0.82c0.27,0.14,0.41,0.41,0.41,0.82c-0.27,7.37,0.41,14.33,2.18,20.74c1.77,6.41,4.91,12.42,9.41,17.87
	c4.23,5.73,9.41,9.82,15.55,12.01c2.86,0.96,5.59,1.37,8.19,1.23c2.59-0.14,5.32-0.41,8.19-0.68c0-0.41,0.14-0.55,0.27-0.55
	c0.14,0,0.27-0.14,0.27-0.41c1.23-0.68,1.91-0.41,1.91,0.96c0.27-0.41,0.55-0.55,0.95-0.55c0.68,0,1.09,0.41,1.36,0.96
	c0.41,0.68,0.27,1.23-0.41,1.5c-1.36,1.23-2.86,2.46-4.78,3.41c-1.64,1.5-3.68,2.73-6.14,3.27c-2.32,0.68-4.91,0.96-7.5,0.96
	c-1.91,0-4.09-0.14-6.69-0.68c-2.59-0.41-5.18-1.23-7.78-2.18c2.32,3.27,5.05,5.87,8.19,7.78c3.27,1.91,6.68,3.68,10.23,5.32
	c2.46,0.68,5.32,1.23,8.46,1.91c3,0.68,5.87,0.82,8.46,0.55c2.46-0.96,4.91-2.05,6.96-3.27c2.05-1.09,4.23-2.05,6.55-3
	c1.23-0.68,2.32-0.55,3.27,0.41c1.09,0.95,0.82,2.05-0.41,3.41c-4.23,4.23-9.55,6.55-15.96,7.23c-5.18,1.64-10.51,3-15.96,4.09
	c-5.46,1.09-10.64,1.23-15.42,0.27c2.18,1.23,4.23,3,5.87,5.32c0.55,0.68,0.68,1.36,0.41,2.18c-0.27,0.82-0.95,1.23-1.91,1.23
	c-3.96,0.55-7.78,0.14-11.6-1.5c0.68,0.68,0.96,1.09,0.96,1.5c0.68,0.27,1.23,0.55,1.91,0.68c0.68,0.14,1.36,0.41,1.91,0.68
	c1.36,0.96,2.59,1.91,3.68,2.73c1.09,0.82,2.32,1.64,3.55,2.59c2.59,2.32,4.91,3,7.1,2.18c2.05-0.82,4.37-1.5,6.96-2.18
	c0.68-0.27,1.23-0.27,1.64,0.27c0.55,0.41,0.55,1.09,0.27,1.64c-1.91,2.59-4.09,4.09-6.41,4.64c-2.46,0.41-5.05,0.68-7.78,0.41
	c-2.73-0.14-5.59-0.27-8.46-0.68c-2.87-0.27-5.46-0.27-7.78,0h-1.91v2.46c2.87,1.23,5.46,2.73,7.78,4.37
	c0.96,0.55,1.91,1.36,3.14,2.32c1.09,0.96,2.32,1.77,3.55,2.46c2.59,1.64,4.78,2.05,6.55,1.5c1.77-0.68,3.68-1.5,5.59-2.46
	c2.18-0.68,3,0.14,2.32,2.46c-1.5,2.59-3.82,4.23-6.96,5.05c-3,0.82-6.14,0.82-9.41,0.27c1.91,1.5,3.82,3.14,5.87,4.5
	c1.91,1.5,3.82,3,5.73,4.64c7.37,5.18,15.01,9.14,22.65,11.87c7.78,2.73,15.96,3.27,24.69,1.64c0.95,0,1.64,0.27,1.91,0.96
	c0.41,0.68,0.14,1.37-0.41,1.91c-1.37,0.68-2.46,1.09-3.41,1.5c-0.95,0.27-2.18,0.82-3.41,1.36c-4.78,2.05-9.96,3-15.42,3
	c0,0.68-0.41,1.09-0.95,1.36c-1.64,0.95-3.27,1.5-4.91,1.5c4.23,1.64,7.64,2.32,10.23,1.91c1.5-0.68,2.59-0.14,3.14,1.5
	c0.41,1.64-0.14,2.73-1.77,3.41c-6.41,2.18-12.69,3-18.83,2.32c3.82,4.23,9,8.19,15.55,12.14c5.46,2.86,12.01,5.32,19.78,7.5
	c7.64,2.05,14.6,1.09,20.74-2.73c1.23-0.68,2.32-0.41,3.14,0.82c0.82,1.09,0.68,2.05-0.27,3c-3.82,3.68-7.78,6.55-11.87,9
	c-3.96,2.46-8.6,3.27-13.64,2.59c-0.68,0.68-1.77,1.5-3.27,2.18c-1.36,0.82-2.87,1.23-4.5,1.23c-3.55,0.68-7.37,0.14-11.32-1.36
	c-4.09-1.64-7.91-3.82-11.46-6.28c5.18,5.46,10.64,10.23,16.51,14.19c5.73,4.09,12.41,6.82,19.78,8.46
	c1.64,0.27,2.18,1.23,1.91,2.59c-0.27,1.5-1.23,2.05-2.86,1.77c-2.32-0.68-3.41-0.41-3.41,0.68c0,1.09,0.68,2.18,1.91,3.14
	c0.96,0.95,2.18,1.77,3.41,2.18c1.23,0.55,2.46,1.09,3.41,1.77c1.91,0.55,3.96,1.23,6,1.91c2.05,0.55,4.09,1.23,6,1.91
	c5.18,1.23,10.37,2.18,15.69,2.86c5.32,0.68,10.37-0.14,15.28-2.46c0.68-0.55,1.23-1.09,1.91-1.36c0.68-0.41,1.23-0.68,1.91-0.95
	c1.64-0.96,2.73-0.82,3.41,0.41c0.68,1.36,0.27,2.46-0.96,3.41c-0.95,0.95-2.05,1.64-3.41,1.91c-3.55,2.32-7.09,4.37-10.91,6.28
	c-3.68,1.91-7.64,3.55-11.73,4.91c-3.55,0.95-7.23,1.36-11.19,1.09c-3.82-0.14-7.5-0.55-11.05-1.09
	c-6.41-1.36-12.96-3.41-19.51-6.14c-6.69-2.73-12.42-6.28-17.19-10.78c1.64,2.59,3.41,4.77,5.32,6.41c1.91,1.77,3.96,3.55,6.28,5.18
	c0.95,0.55,1.36,1.5,1.23,2.59c-0.27,1.09-0.96,1.5-2.18,1.23c-1.36,0-3.14-0.14-5.59-0.55c-2.46-0.27-3.14,0.68-2.18,3
	c0.96,1.5,2.18,3.14,3.82,4.78c1.64,1.64,3.27,3.27,4.91,4.78c1.91,2.05,4.09,3.55,6.68,4.91c2.59,1.23,5.18,2.59,7.78,3.82
	c2.59,1.36,5.32,2.32,8.19,2.86c2.87,0.68,5.59,1.64,8.19,3c0.68,0.27,0.96,0.68,0.82,1.36c-0.27,0.68-0.55,0.96-1.23,0.96
	c-2.32,0.41-4.5,0.41-6.82,0c-3.55,1.64-7.23,2.05-11.05,1.23c-3.96-0.82-7.64-2.05-11.19-3.55c0.68,1.5,1.36,3.27,2.05,5.32
	c0.27,0.55,0.14,1.23-0.27,1.91c-0.55,0.68-1.09,0.96-1.77,0.96c-3.55,0.27-7.37-0.68-11.6-2.87c0,0.27,0.13,0.55,0.27,0.68
	c0.14,0.14,0.27,0.41,0.27,0.68c0.95,0.68,1.91,1.23,2.59,1.5c0.82,0.27,1.77,0.82,2.73,1.37c4.23,2.05,8.19,2.73,12.01,2.18
	c3.96-0.41,8.05-0.82,12.55-1.09c1.09,0,1.77,0.55,2.18,1.64c0.55,1.09,0.27,2.05-0.68,2.59c-4.77,3.96-10.51,6.68-16.92,8.32
	c4.5,2.46,9.28,4.91,14.05,7.23c4.5,2.18,9.14,3.96,13.78,5.32c4.64,1.23,9.41,2.18,14.19,2.86c5.18,0.68,10.1,0.68,15.01,0
	c4.78-0.68,9.82-0.82,15.01-0.55c0.27,0,0.95,0.55,1.91,1.5c0.55-0.27,1.09-0.27,1.36,0c0.41,0.27,0.27,0.82-0.41,1.5
	c-3.22,2.42-6.72,4.29-10.73,5.39c0.3-0.03,0.59-0.01,0.89-0.05c5.32-0.68,10.37-1.64,15.28-2.86c2.18-0.68,4.37-1.36,6.28-1.91
	c1.91-0.68,3.96-1.36,6.28-1.91c0.95-0.68,2.05-1.23,3.27-1.77c1.36-0.41,2.46-1.23,3.41-2.18c1.37-0.96,1.91-2.05,1.91-3.14
	c0-1.09-1.09-1.36-3.27-0.68c-1.64,0.27-2.59-0.27-3-1.77c-0.27-1.36,0.41-2.32,2.05-2.59c7.37-1.64,13.92-4.37,19.78-8.46
	c5.73-3.96,11.19-8.73,16.37-14.19c-3.55,2.46-7.37,4.64-11.32,6.28c-4.09,1.5-7.78,2.05-11.32,1.36c-1.64,0-3.14-0.41-4.64-1.23
	c-1.5-0.68-2.46-1.5-3.14-2.18c-5.18,0.68-9.69-0.14-13.78-2.59c-3.96-2.46-7.91-5.32-11.87-9c-0.95-0.96-0.95-1.91-0.14-3
	c0.82-1.23,1.77-1.5,3.14-0.82c6,3.82,12.96,4.78,20.74,2.73c7.78-2.18,14.32-4.64,19.78-7.5c3.82-2.59,7.37-5.18,10.64-7.78
	c-5.87-0.68-10.1-2.86-13.1-6.68c-0.55-1.36-0.41-2.32,0.82-3c1.09-0.55,2.18-0.55,3.14,0c2.59,2.32,5.87,3,10.1,1.91
	c4.23-0.95,7.91-2.73,11.05-5.18c0.68-1.09,1.36-2.05,2.18-3.14c0.82-1.23,1.64-2.46,2.18-3.68c-3.55,2.59-7.5,4.64-12.01,6
	c-4.5,1.5-8.46,1.09-11.6-1.23c-0.68-0.27-0.96-0.68-0.96-1.36c-5.46,0-10.64-0.96-15.55-3c-1.23-0.55-2.32-1.09-3.27-1.36
	c-0.96-0.41-2.18-0.82-3.41-1.5c-0.68-0.55-0.82-1.23-0.55-1.91c0.41-0.68,0.96-0.96,2.05-0.96c8.32,1.64,16.37,1.09,24.28-1.64
	c7.91-2.73,15.55-6.69,22.92-11.87c1.64-1.36,3.41-2.59,5.18-3.82c1.77-1.37,3.41-2.73,5.05-4.37c-4.23,0-7.78-0.68-10.64-1.91
	c-0.68-0.41-0.96-0.82-0.68-1.23c0.14-0.55,0.55-0.82,1.09-0.82c4.5,0,8.73-1.36,12.42-4.09c3.68-2.73,6.82-5.87,9.41-9.41
	c0.96-0.95,1.77-1.5,2.32-1.91v-6.28h-0.96c-3.14,1.91-7.37,3.27-12.55,3.82c-0.96,0.41-1.5,0-1.64-1.09
	c-0.14-1.23,0.14-1.91,0.68-2.18c1.36-0.68,2.46-1.36,3.41-2.05c0.96-0.55,1.77-1.23,2.46-1.91c-1.64,0.41-3.27,0.68-4.91,0.82
	c-1.5,0.14-3,0.14-4.23,0.14c-9.41,0.68-17.33-1.5-23.74-6.68c-0.68-0.27-0.82-0.82-0.55-1.5c0.41-0.55,0.82-0.82,1.5-0.41
	c8.05,2.18,16.1,1.77,24.15-1.5c0.68-0.68,1.5-0.96,2.46-0.96c0.27-0.68,1.09-1.23,2.32-1.91c-4.78,0.96-9.96,0.82-15.42-0.27
	c-5.46-1.09-10.78-2.46-15.96-4.09c-6.41-0.68-11.73-3-15.96-7.23c-1.23-1.37-1.36-2.46-0.41-3.41c0.96-0.95,2.05-1.09,3.41-0.41
	c2.18,0.96,4.37,1.91,6.55,3c2.05,1.23,4.23,2.32,6.41,3.28c3,0.27,5.87,0.14,9-0.55c3-0.68,5.87-1.23,8.46-1.91
	c3.55-1.64,6.96-3.41,10.1-5.32c3.27-1.91,6-4.5,8.19-7.78c-2.59,0.96-5.05,1.77-7.64,2.18c-2.59,0.55-4.91,0.68-6.82,0.68
	c-2.59,0-5.05-0.27-7.5-0.96c-2.46-0.55-4.37-1.77-6-3.27c-1.91-0.95-3.55-2.18-4.77-3.41c-0.68-0.27-0.82-0.82-0.55-1.5
	c0.27-0.55,0.82-0.96,1.5-0.96l0.96,0.55c0-1.64,0.41-1.91,1.36-0.95l1.09,0.95c2.86,0.27,5.59,0.55,8.19,0.68
	c2.46,0.14,5.32-0.27,8.19-1.23c6.14-2.18,11.19-6.28,15.42-12.01c4.5-5.46,7.64-11.46,9.41-17.87c1.77-6.41,2.46-13.37,2.18-20.74
	c0-0.41,0.14-0.68,0.55-0.82c0.27-0.14,0.55,0.14,0.96,0.82c0,0.27,0,0.41,0.27,0.41c0.14,0,0.14,0.14,0.14,0.55
	c0-0.41,0.14-0.55,0.27-0.55c0.14,0,0.27-0.14,0.27-0.41c0.27-0.68,0.55-0.96,0.96-0.82c0.27,0.14,0.41,0.41,0.41,0.82
	c-0.27,7.37,0.41,14.32,2.18,20.74c1.77,6.41,4.91,12.42,9.41,17.87c4.23,5.73,9.41,9.82,15.55,12.01c2.86,0.96,5.59,1.36,8.19,1.23
	c2.59-0.14,5.32-0.41,8.19-0.68c0-0.41,0.14-0.55,0.27-0.55c0.14,0,0.27-0.14,0.27-0.41c1.23-0.68,1.91-0.41,1.91,0.95
	c0.27-0.41,0.55-0.55,0.95-0.55c0.68,0,1.09,0.41,1.36,0.96c0.41,0.68,0.27,1.23-0.41,1.5c-1.36,1.23-2.86,2.46-4.78,3.41
	c-1.64,1.5-3.68,2.73-6.14,3.27c-2.32,0.68-4.91,0.96-7.5,0.96c-1.91,0-4.09-0.14-6.69-0.68c-2.59-0.41-5.18-1.23-7.78-2.18
	c2.32,3.27,5.05,5.87,8.19,7.78c3.27,1.91,6.68,3.68,10.23,5.32c2.46,0.68,5.32,1.23,8.46,1.91c3,0.68,5.87,0.82,8.46,0.55
	c2.46-0.95,4.91-2.05,6.96-3.28c2.05-1.09,4.23-2.05,6.55-3c1.23-0.68,2.32-0.55,3.27,0.41c1.09,0.95,0.82,2.05-0.41,3.41
	c-4.23,4.23-9.55,6.55-15.96,7.23c-5.18,1.64-10.51,3-15.96,4.09c-5.46,1.09-10.64,1.23-15.42,0.27c2.18,1.23,4.23,3,5.87,5.32
	c0.55,0.68,0.68,1.36,0.41,2.18c-0.27,0.82-0.95,1.23-1.91,1.23c-3.96,0.55-7.78,0.14-11.6-1.5c0.68,0.68,0.96,1.09,0.96,1.5
	c0.68,0.27,1.23,0.55,1.91,0.68c0.68,0.14,1.36,0.41,1.91,0.68c1.36,0.95,2.59,1.91,3.68,2.73c1.09,0.82,2.32,1.64,3.55,2.59
	c2.59,2.32,4.91,3,7.1,2.18c2.05-0.82,4.37-1.5,6.96-2.18c0.68-0.27,1.23-0.27,1.64,0.27c0.55,0.41,0.55,1.09,0.27,1.64
	c-1.91,2.59-4.09,4.09-6.41,4.64c-2.46,0.41-5.05,0.68-7.78,0.41c-2.73-0.14-5.59-0.27-8.46-0.68c-2.87-0.27-5.46-0.27-7.78,0h-1.91
	v2.46c2.87,1.23,5.46,2.73,7.78,4.37c0.96,0.55,1.91,1.36,3.14,2.32c1.09,0.95,2.32,1.77,3.55,2.46c2.59,1.64,4.78,2.05,6.55,1.5
	c1.77-0.68,3.68-1.5,5.59-2.46c2.18-0.68,3,0.14,2.32,2.46c-1.5,2.59-3.82,4.23-6.96,5.05c-3,0.82-6.14,0.82-9.41,0.27
	c1.91,1.5,3.82,3.14,5.87,4.5c1.91,1.5,3.82,3,5.73,4.64c7.37,5.18,15.01,9.14,22.65,11.87c7.78,2.73,15.96,3.27,24.69,1.64
	c0.95,0,1.64,0.27,1.91,0.96c0.41,0.68,0.14,1.36-0.41,1.91c-1.37,0.68-2.46,1.09-3.41,1.5c-0.95,0.27-2.18,0.82-3.41,1.36
	c-4.78,2.05-9.96,3-15.42,3c0,0.68-0.41,1.09-0.95,1.36c-1.64,0.95-3.27,1.5-4.91,1.5c4.23,1.64,7.64,2.32,10.23,1.91
	c1.5-0.68,2.59-0.14,3.14,1.5c0.41,1.64-0.14,2.73-1.77,3.41c-6.41,2.18-12.69,3-18.83,2.32c3.82,4.23,9,8.19,15.55,12.14
	c5.46,2.86,12.01,5.32,19.78,7.5c7.64,2.05,14.6,1.09,20.74-2.73c1.23-0.68,2.32-0.41,3.14,0.82c0.82,1.09,0.68,2.05-0.27,3
	c-3.82,3.68-7.78,6.55-11.87,9c-3.96,2.46-8.6,3.27-13.64,2.59c-0.68,0.68-1.77,1.5-3.27,2.18c-1.36,0.82-2.87,1.23-4.5,1.23
	c-3.55,0.68-7.37,0.14-11.32-1.36c-4.09-1.64-7.91-3.82-11.46-6.28c5.18,5.46,10.64,10.23,16.51,14.19
	c5.73,4.09,12.41,6.82,19.78,8.46c1.64,0.27,2.18,1.23,1.91,2.59c-0.27,1.5-1.23,2.05-2.87,1.77c-2.32-0.68-3.41-0.41-3.41,0.68
	c0,1.09,0.68,2.18,1.91,3.14c0.95,0.96,2.18,1.77,3.41,2.18c1.23,0.55,2.46,1.09,3.41,1.77c1.91,0.55,3.96,1.23,6,1.91
	c2.05,0.55,4.09,1.23,6,1.91c5.18,1.23,10.37,2.18,15.69,2.86c5.32,0.68,10.37-0.14,15.28-2.46c0.68-0.55,1.23-1.09,1.91-1.36
	c0.68-0.41,1.23-0.68,1.91-0.96c1.64-0.96,2.73-0.82,3.41,0.41c0.68,1.36,0.27,2.46-0.96,3.41c-0.95,0.95-2.05,1.64-3.41,1.91
	c-3.55,2.32-7.09,4.37-10.91,6.28c-3.68,1.91-7.64,3.55-11.73,4.91c-3.55,0.96-7.23,1.36-11.19,1.09c-3.82-0.14-7.5-0.55-11.05-1.09
	c-6.41-1.36-12.96-3.41-19.51-6.14c-6.69-2.73-12.42-6.28-17.19-10.78c1.64,2.59,3.41,4.77,5.32,6.41c1.91,1.77,3.96,3.55,6.28,5.18
	c0.95,0.55,1.36,1.5,1.23,2.59c-0.27,1.09-0.96,1.5-2.18,1.23c-1.36,0-3.14-0.14-5.59-0.55c-2.46-0.27-3.14,0.68-2.18,3
	c0.96,1.5,2.18,3.14,3.82,4.78c1.64,1.64,3.27,3.27,4.91,4.78c1.91,2.05,4.09,3.55,6.68,4.91c2.59,1.23,5.18,2.59,7.78,3.82
	c2.59,1.36,5.32,2.32,8.19,2.86c2.87,0.68,5.59,1.64,8.19,3c0.68,0.27,0.95,0.68,0.82,1.36c-0.27,0.68-0.55,0.95-1.23,0.95
	c-2.32,0.41-4.5,0.41-6.82,0c-3.55,1.64-7.23,2.05-11.05,1.23c-3.96-0.82-7.64-2.05-11.19-3.55c0.68,1.5,1.36,3.27,2.05,5.32
	c0.27,0.55,0.14,1.23-0.27,1.91c-0.55,0.68-1.09,0.95-1.77,0.95c-3.55,0.27-7.37-0.68-11.6-2.86c0,0.27,0.14,0.55,0.27,0.68
	c0.14,0.14,0.27,0.41,0.27,0.68c0.96,0.68,1.91,1.23,2.59,1.5c0.82,0.27,1.77,0.82,2.73,1.37c4.23,2.05,8.19,2.73,12.01,2.18
	c3.96-0.41,8.05-0.82,12.55-1.09c1.09,0,1.77,0.55,2.18,1.64c0.55,1.09,0.27,2.05-0.68,2.59c-4.78,3.96-10.51,6.68-16.92,8.32
	c4.5,2.46,9.28,4.91,14.05,7.23c4.5,2.18,9.14,3.96,13.78,5.32c4.64,1.23,9.41,2.18,14.19,2.86c5.18,0.68,10.1,0.68,15.01,0
	c4.78-0.68,9.82-0.82,15.01-0.55c0.27,0,0.95,0.55,1.91,1.5c0.55-0.27,1.09-0.27,1.36,0c0.41,0.27,0.27,0.82-0.41,1.5
	c-3.27,2.46-6.82,4.37-10.91,5.46c-3.96,1.23-8.32,1.77-12.82,1.77c-2.46,0-5.05-0.14-7.37-0.27c-2.46-0.14-5.05-0.27-7.5-0.27
	c-3.27,0.27-4.37,0.55-3.41,0.55c0.96,0,2.05,0.27,3.41,0.95c1.23,0.27,2.87,0.82,4.78,1.36c1.23,0.68,1.91,1.5,1.64,2.46
	c-0.14,0.96-0.82,1.5-2.05,1.5c-2.59,0-4.91,0.95-6.82,3.14c-1.91,2.05-4.23,3.68-6.82,5.05c-2.59,1.64-5.18,2.59-7.91,3.14
	c-2.73,0.41-5.59,0.96-8.46,1.64c-1.64,0-3.14,0.14-4.64,0.27c-1.36,0.14-2.87,0.14-4.5-0.27c2.18,1.36,3.82,2.59,4.78,3.82
	c1.64,1.64,1.5,2.87-0.41,3.41c-1.64,0.68-3.41,0.96-5.32,0.96c-1.91,0-3.68,0.41-5.32,0.96c-1.37,0.41-1.77,0.82-1.5,1.23
	c0.41,0.55,1.09,0.95,2.18,1.5c1.09,0.41,2.32,0.82,3.68,1.23c1.23,0.27,2.18,0.41,2.87,0.41c0.95,0.27,2.05,0.55,3,0.68h-36.44
	c-12.53-11.12-27.07-25.53-38.11-36.46c-8.28-8.21-14.91-14.78-19.03-18.4c-22.69-26.64-36.07-40.15-44.45-47.03
	c1.26-1.36,2.31-2.72,3.11-3.97c1.09-2.32,0.27-3.27-2.18-3c-2.32,0.41-4.23,0.55-5.46,0.55c-1.36,0.27-2.05-0.14-2.18-1.23
	c-0.14-1.09,0.27-2.05,1.23-2.59c2.18-1.64,4.37-3.41,6.28-5.18c1.91-1.64,3.68-3.82,5.32-6.41c-5.18,4.5-11.05,8.05-17.46,10.78
	c-6.41,2.73-12.83,4.78-19.24,6.14c-3.55,0.55-7.23,0.96-11.19,1.09c-3.82,0.27-7.5-0.14-11.05-1.09c-4.23-1.36-8.19-3-11.87-4.91
	c-3.19-1.65-6.35-3.49-9.45-5.44c-1.56-0.05-3.14-0.08-4.59-0.17c-2.46-0.14-5.05-0.27-7.5-0.27c-1.37,0.11-2.26,0.22-2.88,0.32
	c-38.15-27.76-90.18-65.12-104.79-73.16c-4.93-2.72-9.85-4.09-14.62-4.09c-18.47,0-29.15,18.95-41.53,40.9
	c-3.38,6-6.98,12.39-10.98,18.86c-6.62,10.7-16.44,26.54-25.82,34.66c-1.92-0.57-3.8-1.31-5.66-2.49c-2.59-1.36-4.77-3-6.82-5.05
	c-1.91-2.18-4.09-3.14-6.68-3.14c-1.23,0-2.05-0.55-2.18-1.5c-0.14-0.95,0.27-1.77,1.23-2.46c1.23-0.27,2.87-0.82,4.78-1.36
	c1.64-0.68,2.86-0.96,3.96-0.96c0.96,0-0.27-0.27-3.41-0.55c-2.59,0-5.05,0.14-7.5,0.27c-1.55,0.09-3.15,0.12-4.73,0.17
	c-1.48,0.93-3.01,1.73-4.52,2.6c-3.42-5.32-7.09-9.58-11.01-12.77c2.39,0.1,4.74,0.27,7.02,0.58c4.78,0.68,9.69,0.68,14.87,0
	c4.91-0.68,9.69-1.64,14.32-2.86c4.64-1.37,9.28-3.14,13.78-5.32c5.46-2.59,11.19-5.87,17.33-9.69c6.14-3.96,9.96-9,11.6-15.42
	c-4.23,2.18-8.05,3.14-11.6,2.87c-1.91,0-2.59-0.96-1.91-2.87c0.27-2.05,0.95-3.82,1.91-5.32c-3.55,1.5-7.23,2.73-11.05,3.55
	c-3.96,0.82-7.64,0.41-11.19-1.23c-2.59,0.68-4.78,0.68-6.69,0c-0.68,0-1.09-0.27-1.23-0.96c-0.14-0.68,0-1.09,0.68-1.36
	c2.59-1.36,5.32-2.32,8.19-3c3-0.55,5.73-1.5,8.32-2.86c2.46-1.23,5.05-2.59,7.64-3.82c2.59-1.36,4.78-2.86,6.82-4.91
	c1.5-1.5,3.14-3.14,4.77-4.78c1.64-1.64,2.87-3.27,3.82-4.78c1.09-2.32,0.27-3.27-2.18-3c-2.32,0.41-4.23,0.55-5.46,0.55
	c-1.36,0.27-2.05-0.14-2.18-1.23c-0.14-1.09,0.27-2.05,1.23-2.59c2.18-1.64,4.37-3.41,6.28-5.18c1.91-1.64,3.68-3.82,5.32-6.41
	c-5.18,4.5-11.05,8.05-17.46,10.78c-6.41,2.73-12.83,4.78-19.24,6.14c-3.55,0.55-7.23,0.95-11.19,1.09
	c-3.82,0.27-7.5-0.14-11.05-1.09c-4.23-1.36-8.19-3-11.87-4.91c-3.68-1.91-7.37-3.96-10.91-6.28c-1.5-0.27-2.73-0.95-3.27-1.91
	C290.61,342.08,290.34,340.98,291.02,339.62z M795.28,642.87c0,0-49.67-70.68-106.58-73.73c0,0-5.36,11.85,9.09,29.77
	c0,0-26.65-11.17-45.8-45.67c-19.12-34.49-26.65-59.83-32.91-50.71c-6.28,9.12,33.86,68.98-47.65,109.9c0,0,9.71-37.89,25.08-63.59
	c0-27.04,4.7-43.26-0.63-42.94c-5.33,0.35-45.47,43.64-50.47,44.32c-5.03,0.65,56.43-57.49,40.74-60.89
	c-15.67-3.37-82.78,100.78-129.81,114.3c0,0,73.52-85.72,93.77-99.43c0,0-2.53-20.62-28.55,11.17
	c-26.03,31.79-17.09,38.06-56.36,49.72c-11.04,8.8-31.43,4.72-43.34,56.46c0,0-5.66,21.65-37.94-8.8
	c-10.36,1.02-49.25,20.42-81.24-2.01c70.24-18.39,145.51-80.82,126.69-84.9c-18.79-4.05-75.25,46.66-91.54,43.97
	c-16.32-2.7,95.32-122.8,99.73-124.29c0,0-26.68,2.89-49.72,26.23c0,0,47.2-84.56,24.62-79.13c-22.57,5.4,3.13,29.42-73.05,90.28
	c-76.2,60.86-70.86,148.36-89.67,154.46c-18.82,6.07-4.4-73.3-4.4-73.3l-75.03,82.35c0,0,97.6-175.68,133.34-169.61
	c0,0-6.58-22.29-47.97,5.07c0,0,63.96-47.04,29.48-36.35c-34.48,10.66-72.12,43.13-87.79,62.08
	c-15.69,18.95-52.8,74.19-117.12,103.13c0,0-23.52,10.66-33.41,25.37c-9.86,14.71-45.14,15.95-45.14,15.95s108.18-95.08,127-100.16
	c18.79-5.07,47.02-67.96,95.95-83.18c14.11-10.5,46.7-77.46,75.55-30.09c28.85,47.34,52.38,11.82,73.07-21.65
	c20.7-33.49,31.03-64.94,54.08-52.25c23.05,12.68,146.27,103.64,146.27,103.64s24.78,12.85,36.69-20.29c0,0,0.95-10.8,53.15,50.58
	c12.39,10.63,58.31,59.86,78.55,71.52c20.22,11.66,112.86,79.65,119.92,87.74C865.85,664.16,840.12,642.52,795.28,642.87z
	 M504,624.54c-40.92,35.44-27.5,0-27.5,0s54.3-33.25,63.04-60.73C539.54,563.82,544.87,589.13,504,624.54z M687.11,640.15
	c0,0-75.25-39.92-59.56-61.89C643.22,556.3,683.36,624.58,687.11,640.15z M310.37,546.77c-14.04-11.66,29.6-41.48,39.54-44.29
	C349.91,502.48,324.41,558.41,310.37,546.77z M125.28,623.18c0,0,79.71-72.25,91.7-98.37C216.98,524.81,199.76,590.28,125.28,623.18
	z M609,174.86c0,4.25-3.44,7.69-7.69,7.69c-4.25,0-7.69-3.44-7.69-7.69c0-4.25,3.44-7.69,7.69-7.69
	C605.56,167.17,609,170.62,609,174.86z M821.71,266.27c0,4.25-3.44,7.69-7.69,7.69c-4.25,0-7.69-3.44-7.69-7.69
	c0-4.25,3.44-7.69,7.69-7.69C818.27,258.59,821.71,262.03,821.71,266.27z M51.96,266.27c0-4.25,3.44-7.69,7.69-7.69
	c4.25,0,7.69,3.44,7.69,7.69c0,4.25-3.44,7.69-7.69,7.69C55.4,273.96,51.96,270.52,51.96,266.27z M537.76,223.14
	c0,2.64-2.14,4.78-4.78,4.78c-2.64,0-4.78-2.14-4.78-4.78c0-2.64,2.14-4.78,4.78-4.78C535.63,218.37,537.76,220.51,537.76,223.14z
	 M578.93,297.39c2.64,0,4.78,2.14,4.78,4.78c0,2.64-2.14,4.78-4.78,4.78c-2.64,0-4.78-2.14-4.78-4.78
	C574.15,299.53,576.29,297.39,578.93,297.39z M799.48,331.51c2.64,0,4.78,2.14,4.78,4.78c0,2.64-2.14,4.78-4.78,4.78
	c-2.64,0-4.78-2.14-4.78-4.78C794.7,333.65,796.84,331.51,799.48,331.51z M590.12,234.18c1.94,0,3.5,1.57,3.5,3.51
	c0,1.94-1.57,3.5-3.5,3.5c-1.94,0-3.51-1.57-3.51-3.5C586.62,235.75,588.19,234.18,590.12,234.18z M821.13,391.93
	c0-1.94,1.57-3.5,3.5-3.5s3.51,1.57,3.51,3.5c0,1.94-1.57,3.51-3.51,3.51S821.13,393.86,821.13,391.93z M821.13,214.86
	c0-1.94,1.57-3.5,3.5-3.5s3.51,1.57,3.51,3.5c0,1.94-1.57,3.51-3.51,3.51S821.13,216.8,821.13,214.86z M536.49,150.59
	c-1.94,0-3.5-1.57-3.5-3.5c0-1.94,1.57-3.51,3.5-3.51c1.94,0,3.51,1.57,3.51,3.51C540,149.02,538.43,150.59,536.49,150.59z
	 M270.27,174.86c0,4.25-3.44,7.69-7.69,7.69c-4.25,0-7.69-3.44-7.69-7.69c0-4.25,3.44-7.69,7.69-7.69
	C266.83,167.17,270.27,170.62,270.27,174.86z M326.14,223.14c0-2.64,2.14-4.78,4.78-4.78c2.64,0,4.78,2.14,4.78,4.78
	c0,2.64-2.14,4.78-4.78,4.78C328.28,227.92,326.14,225.78,326.14,223.14z M280.2,302.16c0-2.64,2.14-4.78,4.78-4.78
	s4.78,2.14,4.78,4.78c0,2.64-2.14,4.78-4.78,4.78S280.2,304.8,280.2,302.16z M69.2,336.29c0,2.64-2.14,4.78-4.78,4.78
	c-2.64,0-4.78-2.14-4.78-4.78c0-2.64,2.14-4.78,4.78-4.78C67.06,331.51,69.2,333.65,69.2,336.29z M270.27,237.69
	c0-1.94,1.57-3.51,3.5-3.51s3.51,1.57,3.51,3.51c0,1.94-1.57,3.5-3.51,3.5S270.27,239.62,270.27,237.69z M35.76,391.93
	c0-1.94,1.57-3.5,3.5-3.5s3.51,1.57,3.51,3.5c0,1.94-1.57,3.51-3.51,3.51S35.76,393.86,35.76,391.93z M35.76,214.86
	c0-1.94,1.57-3.5,3.5-3.5s3.51,1.57,3.51,3.5c0,1.94-1.57,3.51-3.51,3.51S35.76,216.8,35.76,214.86z M327.41,150.59
	c-1.94,0-3.51-1.57-3.51-3.5c0-1.94,1.57-3.51,3.51-3.51c1.94,0,3.5,1.57,3.5,3.51C330.91,149.02,329.34,150.59,327.41,150.59z"/>
</svg>
