<?xml version="1.0" encoding="utf-8"?>
<!-- Generator: Adobe Illustrator 25.2.3, SVG Export Plug-In . SVG Version: 6.00 Build 0)  -->
<svg version="1.1" id="Layer_1" xmlns="http://www.w3.org/2000/svg" xmlns:xlink="http://www.w3.org/1999/xlink" x="0px" y="0px"
	 viewBox="0 0 864 864" style="enable-background:new 0 0 864 864;" xml:space="preserve">
<style type="text/css">
	.st0{fill:#F69287;}
	.st1{fill:#D1A5CB;}
	.st2{fill:#ED95BF;}
</style>
<path class="st0" d="M69.2,270c-12-6-22.3-15.5-31-27.9S23.5,216.5,20,202.6c-3.4-13.9-5.3-28.1-5.5-42.7c-0.2-14.6,2.1-28.3,7-41.7
	c4.9-13.5,11.2-25.8,19.1-37.3s18.3-21.1,31.3-28.8S99.3,40.3,115,40.5c15.9,0,29.9,5.9,42.1,17.7s19.7,26.7,22.6,44.5
	c1.2,6.8,0.1,12.5-3.1,17c-3.3,4.5-7.7,7.6-13.4,9.4c-5.6,1.7-12,2.6-19.2,2.4c-3.9-0.2-7.8-0.9-11.8-2.3c-4-1.3-7.7-3.3-11.2-5.9
	s-5.9-5.8-7.1-9.6c-1.2-3.8-1-8.2,0.7-13.2c1.8-5.1,2.4-9.3,1.7-12.3c-0.7-3-1.9-5.1-3.8-6.3c-1.9-1.2-4.1-1.7-6.6-1.4
	c-6.4,0.6-11.3,7.1-14.6,19.3c-3.3,12.2-4.8,25.3-4.4,39.5s2.6,27.5,6.6,39.9s9.3,19.2,15.7,20.2c3.7,0.6,6.6-0.8,8.6-4.3
	s2-7.2-0.1-10.9c-4.3-8.1-5.2-14.7-2.5-19.8s7.1-8.8,13.2-11.1s12.6-3.2,19.5-2.5c9.4,0.9,17.2,3.4,23.2,7.5
	c6.1,4.1,9.1,10.3,9.1,18.6c-0.2,5-1.3,10.9-3.6,17.6c-0.3,0.7-0.7,2-1.2,3.9s-0.9,3.4-1.1,4.5c-0.2,1.1-0.5,2.5-0.8,4.1
	s-0.5,3.2-0.7,4.9c-0.1,1.6-0.2,3.3-0.2,5c0,5.8,1.6,13.9,4.8,24.2s4.8,18.3,4.8,24.2c0.1,10.5-3.1,18-9.9,22.2
	c-6.7,4.2-14.7,5.1-23.8,2.6c-3.9-1-8.6-3.5-14.3-7.7c-5.6-4.2-10.4-6.6-14.5-7.2c-1.5-0.2-5.3,0.1-11.4,0.7s-12,0.8-17.6,0.4
	C85.3,275.9,78,273.9,69.2,270z"/>
<path class="st0" d="M191.3,256.7c-0.6-6.7,0.3-14.3,2.7-22.8s5.2-16.3,8.3-23.4c3.1-7.1,6-15.6,8.5-25.8
	c2.5-10.1,3.7-19.8,3.4-29.1c-0.3-9.5-1.9-19.3-4.7-29.7s-5.6-19.9-8.2-28.7c-2.6-8.8-3.8-16.5-3.5-23c0.1-7.6,2.3-14.1,6.5-19.3
	s9.3-8.9,15.3-11c6-2.1,12.6-3.2,19.9-3.2c7.3,0,13.8,1,19.6,3.1c5.8,2.1,10.7,5.6,14.7,10.6s5.9,11.2,5.9,18.6
	c-0.2,5.3-1.1,11.1-2.9,17.3c-1.8,6.3-3.7,12-5.8,17.3c-2.1,5.2-4,11.7-5.8,19.4s-2.8,15.3-2.9,22.9c-0.2,9.2,1.2,19,3.9,29.3
	c2.8,10.4,5.8,19.2,9,26.6c3.2,7.4,6,15.3,8.4,23.6s3.3,15.5,2.7,21.4c-0.9,7.3-3.8,13.9-8.6,19.7c-4.9,5.8-10.7,10.2-17.5,13.2
	c-6.8,3-14.1,4.9-21.9,5.4c-7.8,0.5-15-0.3-21.8-2.3c-6.7-2.1-12.5-5.8-17.2-11.2C194.6,270.5,191.9,264.1,191.3,256.7z"/>
<path class="st0" d="M388.1,233c-0.9,7-3.8,13.4-8.6,19.3c-4.9,5.9-10.7,10.6-17.5,14.2s-14.1,6.1-21.9,7.6s-15,1.6-21.8,0.4
	c-6.7-1.2-12.5-4.1-17.2-8.7c-4.7-4.5-7.4-10.5-8-17.8c-0.6-6.5,0.3-14,2.8-22.4c2.5-8.5,5.3-16.3,8.5-23.6s6.1-15.8,8.8-25.7
	c2.6-9.9,3.8-19.3,3.5-28.3c-0.3-7.8-1.9-16.3-4.9-25.5s-5.8-18-8.5-26.3s-3.9-15.3-3.6-21.1c0.7-13.4,9.7-23.3,26.9-29.4
	c9.7-3.5,21.6-5.5,35.7-6c14.1-0.6,28,0.7,41.7,3.6c12.6,2.7,23.3,7.6,32.1,14.6c8.8,6.9,14.8,14.2,18.1,22.1
	c3.2,7.9,4.2,15.9,2.8,24.3c-1.3,8.4-5.2,15.7-11.4,22c-3.3,3.3-5.8,6.1-7.4,8.3s-2.8,4.7-3.6,7.4c-0.8,2.7-0.4,5.5,0.9,8.3
	s3.7,5.8,7,9c3.7,3.7,11.4,8.6,23.1,14.2c11.7,5.7,19.7,10.4,24,14.5c5.2,4.8,7.6,11.5,7.2,20.1s-3.7,16.1-9.9,22.6
	c-7.6,8.3-18.1,14.6-31.4,18.9c-13.3,4.2-24.8,4.8-34.6,1.5c-5.7-1.8-10.3-4.8-13.7-9.1c-3.4-4.3-5.9-9.5-7.4-15.5
	s-2.7-12.1-3.6-18.2c-0.9-6.2-2-13.1-3.4-20.8c-1.3-7.7-3.1-14.3-5.2-19.8c-2.5-6.8-5.9-10.4-10.1-10.6c-3.7-0.3-6,2.1-6.7,7.3
	c-1,6.3,0.7,14.8,5.4,25c3,6.9,5.2,12.2,6.7,15.9s2.8,8.2,4,13.5C388.2,223.9,388.6,228.7,388.1,233z M362.5,109.3
	c1.6,7.5,4.6,9,8.8,4.8c4.2-3.9,7.1-9.9,8.8-18.2c1.9-10.1-0.2-16-6.5-17.6c-1.2-0.4-2.6-0.6-4.3-0.5c-2.7,0.1-4.8,1.6-6.2,4.3
	c-1.4,2.8-2.1,6.1-2,10.1s0.2,7.3,0.4,10.1C361.8,105.1,362.1,107.4,362.5,109.3z"/>
<path class="st0" d="M598.2,140.8c-3.6-4.7-4-9-1.3-12.7s7.1-6.7,13.4-8.9c6.2-2.2,13.1-3.4,20.5-3.7c13.3-0.5,23.9,3.6,31.8,12.3
	c7.9,8.7,11.4,19.2,10.7,31.5c-0.3,5.8-1.6,11.4-3.9,16.8c-2.3,5.5-5.9,10.9-10.8,16.3c-4.9,5.4-10.8,10.2-17.7,14.5
	c-7,4.3-15.6,8.1-25.8,11.5c-10.3,3.4-21.6,6-34,7.7s-24.4,2.3-35.9,1.4c-11.5-0.9-21.2-3.3-29.2-7.4c-7.9-4.2-12.6-9.7-14.1-16.5
	c-1-6.2-1.1-11.7-0.1-16.6c1-4.9,2.6-10.2,4.8-15.8c2.2-5.7,4.5-10.8,6.7-15.4c2.2-4.6,4.2-9.7,5.8-15.3s2.4-10.9,2.2-15.9
	c-0.3-7-1.9-14.3-4.9-21.8c-3-7.5-5.8-14.5-8.5-20.9s-4-12-3.8-16.7c0.3-5.6,2.5-10.3,6.7-14.1s9.3-6.5,15.3-8s12.6-2.3,19.9-2.3
	c7.3,0,13.8,0.7,19.6,2.1c5.8,1.4,10.7,3.8,14.7,7.2s5.9,7.6,5.7,12.6c0,4.8-1.4,10.3-4.2,16.7c-2.8,6.4-5.5,13.1-8.3,20.3
	c-2.8,7.1-4.2,14.1-4.4,20.7c0,2.9,0.4,6.2,1.1,10.2c0.7,3.9,1.9,7.9,3.6,11.9c1.6,4,4,7.4,7,9.9c3,2.6,6.4,3.8,10.1,3.5
	c3.7-0.2,6.5-2.2,8.2-5.8C600.7,146.4,600.5,143.3,598.2,140.8z"/>
<path class="st0" d="M677.4,159.1c-1-18.9,6.1-32,21.3-39.2c10.5-4.9,21.8-6,33.9-3c9.9,2.4,15.9,6.6,18,12.3
	c1.5,3.9,0.6,7.7-2.7,11.5c-2.2,2.6-2.5,5.8-0.7,9.5s4.6,5.7,8.3,6.1c3.9,0.4,7-0.7,9.3-3.2s3.3-5.8,3-9.8s-1.7-7.9-4.3-11.6
	c-3.6-4.9-8.3-9.5-14.3-13.8c-5.9-4.3-11.8-8-17.6-10.9c-5.8-3-11.6-5.9-17.2-8.8c-5.6-2.9-10.5-6.1-14.7-9.6s-7-7.3-8.5-11.4
	c-1.9-5.6-1.3-11.1,1.9-16.5c3.2-5.3,8.9-9.7,16.9-13.2c16.5-7,37.6-9.9,63.3-8.2c16.3,1.1,30.8,5.7,43.5,14.6s20.5,21,23.3,35.4
	c1.8,9.9-2.8,16.2-13.9,18.7c-10.2,2.2-20.9,1.1-32.3-2.8c-10.9-3.7-16.9-8.7-18-15.2c-0.3-2.2,0.1-4.6,1.1-7.1
	c3-6.8,2-11.4-2.9-13.6c-3.9-1.8-7.9-1.4-11.9,1.1c-5.5,3.4-6.4,8.3-2.5,15c0.4,0.9,1,1.8,1.6,2.8c2.5,3.5,6.3,7,11.2,10.7
	s10.1,7.2,15.6,10.7s11.3,7.2,17.4,11.4c6.1,4.2,11.9,8.9,17.4,14.1c5.5,5.2,10.4,11,14.7,17.3s7.6,13.5,9.9,21.6
	c2.2,8.1,3.1,16.5,2.5,25.1c-1.2,15.8-8.9,25.9-23,30.9c-14.1,5.1-33.3,3.7-57.6-1.5c-12.3-2.6-23.6-5.7-33.9-9.4
	c-10.3-3.7-18.9-7.7-25.8-12.1c-6.9-4.4-12.8-9.3-17.6-14.7c-4.9-5.4-8.5-10.9-10.9-16.4C679.1,170.5,677.7,164.9,677.4,159.1z"/>
<path class="st1" d="M238.1,338.4c20-24.4,42.2-38.8,66.6-43c24.4-4.3,46.6,2.2,66.6,19c17.3,14.5,29.4,34.5,36.3,60.6
	s7.9,52.5,2.8,79.5c-3.4,17.9-10.6,34.4-21.5,49.4c-10.9,15-23.5,27-37.8,35.9c-14.3,8.8-29.7,14.9-46.1,18.1
	c-16.4,3.1-31.7,2.9-46.1-0.5c-14.3-3.5-26.9-10.8-37.8-21.9c-10.9-11.1-18.1-25.2-21.5-41.9c-5-25.1-4.1-51.9,2.7-80.7
	C209.3,383.9,221.2,359.2,238.1,338.4z M305.9,340.4c-13.3,2.4-21.1,24.4-23.2,64.9c-1.6,28.3,2,46.8,10.8,56
	c5.9,5.9,12.1,5.6,18.4-1c9-9.3,13.8-26,14.3-50.3c0.2-4.1,0.2-8.2,0-12.4c-0.7-21.2-2.7-36.4-6.1-45.4
	C316.8,343.2,312.1,339.2,305.9,340.4z"/>
<path class="st1" d="M569.4,483.3c-6.1-3.4-10.2-8.5-12.2-15.5s-1.7-15.1,0.8-24.2c3.2-12,2.8-24.6-1.4-37.7
	c-1.3-3.9-4.2-9.8-8.9-17.5c-4.7-7.8-10-14.6-15.9-20.6s-10.5-7.8-13.8-5.4c-2.5,2-3.9,5.6-4.1,10.7c-0.2,5.1,0.7,11,2.6,17.7
	c1.9,6.7,3.9,13.1,5.9,19.2c2.1,6.1,4.3,12.2,6.8,18.5c2.4,6.2,3.8,10.2,4.2,11.7c2.5,7.6,3.4,15.4,2.7,23.3
	c-0.5,8.6-3.7,16.6-9.6,24.2c-5.9,7.5-12.9,13.7-21.1,18.4c-8.2,4.7-17.1,8.3-26.7,10.8s-18.6,3.4-26.9,2.9s-15.3-3-21.1-7.5
	c-5.8-4.5-8.9-10.8-9.5-18.9c-0.5-5.6,0.2-12.1,2.3-19.4c2.1-7.3,4.7-14.7,7.8-22c3.1-7.4,6.4-14.9,9.7-22.6
	c3.3-7.7,6.1-15.9,8.2-24.7c2.2-8.8,3.1-17.1,3-24.9c-0.4-11.4-2.4-25.4-6.1-42.1s-5.4-28.9-5-36.5c0.4-10.9,5.4-20.4,15-28.4
	s20.8-13.2,33.4-15.4c9.2-1.7,17.2-1.1,23.9,1.6c6.8,2.7,11.9,6.8,15.5,12.2c3.6,5.4,6.9,12,10,19.6s5.6,15.1,7.6,22.5
	c2,7.3,4.6,14.8,8,22.3c3.3,7.6,7,13.5,10.9,17.9c6.3,6.6,10.9,6.5,13.8-0.2c2.3-4.8,2.8-10.7,1.4-17.6c-1.4-7.3-5-17.7-10.8-31.2
	c-5.8-13.4-8.5-23.5-8.1-30.4c0.2-7.2,2.8-13.6,7.8-19.2s11.2-9.9,18.4-12.8c7.2-2.9,15.2-4.8,23.9-5.8c8.7-0.9,16.6-0.6,23.6,0.8
	c7,1.4,12.9,4.4,17.7,8.9s7.2,10.3,7.2,17.3c-0.2,4.8-1.4,10.3-3.5,16.3c-2.2,6.1-4.5,11.7-7,16.8c-2.5,5.2-4.9,11.5-7,19.2
	c-2.2,7.6-3.3,15.3-3.5,22.8c-0.2,9.3,1.4,19.3,4.7,30.1c3.3,10.8,6.9,20.3,10.8,28.4c3.9,8.1,7.2,16.9,10.1,26.4
	c2.9,9.5,4,17.7,3.2,24.4c-1.3,9.3-5.7,17.3-13.4,24s-16.5,11.5-26.5,14.4s-20.4,4.2-31.3,4C586.1,489.4,576.9,487.3,569.4,483.3z"
	/>
<path class="st2" d="M114.9,690.1c-3.7,0-6,1.6-7,4.9c-1,3.2-1.1,6.8-0.3,10.7c1.8,9.3,5.5,20.3,11.1,32.4
	c5.7,12.1,10.4,22.7,14.3,32c3.9,9.3,5.4,17,4.4,23.5c-1.2,6.9-4.9,12.7-11.3,17.6c-6.3,4.9-14,8.4-22.8,10.6
	c-8.9,2.2-18.4,3.3-28.5,3.2s-19.6-1.4-28.4-4c-8.8-2.7-16.2-7.2-22.4-13.6c-6.1-6.4-9.6-14.2-10.4-22.9c-0.6-7.7,0.6-16.1,3.5-24.9
	c2.9-8.8,6.4-16.5,10.5-23.1s7.9-14.7,11.3-24.2c3.4-9.5,5.2-18.9,5.4-28.3c0.2-6.1-0.8-13.4-3.1-22.2c-2.2-8.7-4.7-17-7.3-24.8
	s-5.1-16.2-7.5-25.2c-2.3-9-3.7-16.6-4.1-22.7c-0.4-6.1,0.8-11.6,3.5-16.5c8.4-11.9,24.1-11.6,47.1-3.1c4.1,1.4,12.3,4.9,24.7,9.3
	c12.4,4.4,22.6,6.8,30.6,7.8c6.2,0.9,17.2,1.2,32.9-0.3s26.7-2.1,32.9-0.7c6.4,1.6,11.8,5.5,16.1,11.7c4.3,6.3,6.7,13.3,7.3,21.1
	s0,15.4-1.6,22.8c-1.7,7.4-5.4,13.4-11.1,18.2c-5.8,4.7-12.7,6.7-20.9,6c-5.1-0.6-9.4-2.2-12.9-4.7s-6.4-5.6-8.6-9
	c-2.2-3.4-4.5-6.9-6.9-10.3c-2.3-3.4-5.7-6.5-10-9.4s-9.4-4.9-15.2-6c-4.1-0.9-8-1.1-11.6-0.7c-3.6,0.4-6.5,1.3-8.6,2.6
	s-3.8,2.9-5,4.7s-1.8,3.7-1.8,5.6c0,1.9,0.7,3.6,2,5.1c2.1,2.4,4.4,3.5,6.9,3.5c2.4,0,4.5-0.6,6.1-1.6c1.7-1,3.6-2.1,5.7-3.3
	s3.8-1.7,5-1.6c5.7,0.5,9.8,6.2,12.3,16.8s2.7,20.8,0.4,30.6c-2.2,9.8-6.3,14.1-12.1,12.8c-2-0.4-4.5-2.2-7.8-5.4
	C118.8,691.6,116.5,690,114.9,690.1z"/>
<path class="st2" d="M222.9,793c-0.8-6.2,0.4-13.3,3.5-21.3s6.7-15.5,10.8-22.3s7.8-15.1,11.1-25s4.8-19.4,4.4-28.4
	c-0.4-9.2-2.4-18.7-6.1-28.5c-3.7-9.8-7.3-18.9-10.7-27.3c-3.4-8.4-4.9-15.8-4.5-22.3c0.2-7.5,3-14.1,8.5-19.7
	c5.5-5.7,12.1-10,19.9-13.1s16.4-5.4,25.9-6.9s18-2,25.6-1.4c7.6,0.7,14,3.1,19.2,7.3s7.8,10.3,7.8,18.1c-0.2,5.6-1.5,11.9-3.8,18.9
	s-4.9,13.4-7.6,19.2s-5.3,12.9-7.6,21.1c-2.3,8.2-3.6,16.2-3.8,24c-0.2,9.4,1.5,19.3,5.1,29.7s7.5,19.5,11.7,27.1s7.9,15.9,11,24.8
	c3.1,8.9,4.3,16.5,3.5,22.9c-1.2,7.7-4.9,14.4-11.3,19.9c-6.3,5.5-14,9.4-22.8,11.7c-8.9,2.3-18.4,3.4-28.5,3.3
	c-10.1-0.1-19.6-1.3-28.4-3.5c-8.8-2.2-16.2-5.8-22.4-10.8C227.1,805.7,223.7,799.8,222.9,793z"/>
<path class="st2" d="M479.5,781.8c-1.2,9.2-4.9,17.1-11.3,23.7c-6.3,6.6-14,11.3-22.8,14.1c-8.9,2.8-18.4,4.2-28.5,4.2
	s-19.6-1.4-28.4-4.1c-8.8-2.7-16.2-6.9-22.4-12.5c-6.1-5.6-9.6-12.3-10.4-20.2c-0.8-7,0.4-15,3.7-24.1c3.2-9.1,6.9-17.7,11.1-25.7
	s8-17.7,11.4-28.9c3.4-11.3,4.9-22,4.5-32.1c-0.4-8.7-2.5-18-6.4-27.8c-3.9-9.7-7.6-18.8-11.1-27.3c-3.5-8.4-5.1-15.8-4.7-22.1
	c1-14.7,12.7-27.9,35.1-40.3c12.7-7,28.2-13.3,46.5-18.8c18.3-5.4,36.5-8.5,54.4-9c16.4-0.3,30.3,3.4,41.8,10.9
	c11.5,7.6,19.4,17,23.6,27.9c4.2,10.9,5.4,22.7,3.7,35c-1.8,12.4-6.7,23.2-14.9,32.4c-4.3,4.9-7.5,8.9-9.7,12.1
	c-2.1,3.2-3.7,6.7-4.7,10.5c-1,3.9-0.6,7.8,1.2,11.8s4.8,8.5,9.1,13.4c4.9,5.7,14.9,13.4,30.1,23.7c15.2,10.4,25.7,19.7,31.3,27.2
	c6.8,8.8,10,20.3,9.4,34.2c-0.6,14-4.9,25.3-12.9,33.8c-10,11.1-23.6,17.6-41,19.6s-32.4-1.2-45.1-9c-7.4-4.3-13.4-9.9-17.9-16.8
	c-4.5-6.9-7.7-14.6-9.7-23.1s-3.5-16.9-4.7-25.4c-1.2-8.4-2.6-17.8-4.4-28.1s-4-19-6.7-26.2c-3.3-8.9-7.7-13.4-13.2-13.5
	c-4.9-0.2-7.8,3-8.8,9.5c-1.4,8,1,18.5,7,31.8c3.9,9,6.8,16.1,8.8,21.1c1.9,5,3.7,11.1,5.3,18.3
	C479.6,769.7,480.1,776.1,479.5,781.8z M446.2,624.3c2.1,8.8,5.9,10.3,11.4,4.5c5.5-5.5,9.3-13.6,11.4-24.2
	c2.5-13.1-0.3-20-8.5-20.5c-1.6-0.2-3.4-0.1-5.6,0.4c-3.5,0.8-6.2,3.1-8,6.8c-1.9,3.7-2.7,7.9-2.6,12.7s0.3,8.8,0.6,12.1
	C445.1,619.3,445.6,622,446.2,624.3z"/>
<path class="st2" d="M753.7,683.1c-3.9-7.1-4.9-13.2-3.1-18.3c1.9-5.2,5.3-9.3,10.4-12.2c5.1-2.9,11.5-4.5,19.2-4.5
	s15.3,1.7,22.7,4.9c12.5,5.1,22.7,13.6,30.7,24.5c8,11,13.3,22.5,15.8,34.6s2.7,23.7,0.6,35.4c-2.3,12.8-7.3,23.9-14.8,33.7
	s-16.5,17.8-26.9,23.9c-10.4,6.1-22,11-34.8,14.6c-12.8,3.5-25.7,5.5-38.6,5.4c-13,0-25.7-1.5-38-4.5c-12.4-3-23.5-7.3-33.4-12.7
	c-9.9-5.5-18-12.2-24.6-20.1c-6.5-7.9-10.4-16.5-11.6-25.7c-1.4-9.9-1-20,1-30.3s4.7-19.2,7.9-26.7s6.5-16.3,10-26.3
	c3.4-10,5.6-19.3,6.6-27.8c1-8.9,0.5-18.5-1.3-28.5c-1.9-10.1-4.3-18.9-7.3-26.4c-3-7.6-5.9-15.7-8.5-24.4s-4.2-16.3-4.7-22.7
	s0.7-13.4,3.7-21c8.4-17.4,24.2-26.2,47.4-24.4c4.1,0.3,12.3,1.4,24.6,3.9c12.3,2.6,22.4,4.6,30.4,5.6c6.2,0.8,17.2,0.9,32.9,2
	s26.8,4.3,33.2,8.1c6.4,4.1,11.8,10.5,15.9,19c4.2,8.6,6.6,17.3,7.3,26.3s0.1,17.2-1.6,24.8c-1.8,7.6-5.5,13-11.1,16.4
	c-5.7,3.4-12.7,3.6-21.1,0.6c-4.9-1.7-9.1-4.3-12.6-8.1c-3.5-3.7-6.4-7.8-8.6-12.1c-2.2-4.4-4.6-8.7-7-13s-5.8-8.3-10-12
	s-9.3-6.2-15.4-7.5c-4.1-1-7.8-1-11-0.2c-3.2,0.9-5.7,2.4-7.5,4.5s-3.1,4.3-4,6.7s-1.1,4.8-0.7,7.2c0.4,2.4,1.4,4.2,2.9,5.4
	c2.7,1.7,4.9,2.1,6.6,1c1.7-1.1,3.8-2.8,6.4-4.9c2.6-2.1,4.7-3.1,6.3-2.9c5.7,0.6,9.7,7.3,12.1,20.2c2.4,12.9,2.5,25.3,0.3,37.5
	s-6.3,17.5-12.1,16c-2-0.4-4.5-2.6-7.6-6.5s-5.6-5.8-7.3-5.8c-2.7,0.4-4.8,2.3-6.1,5.6c-1.4,3.3-2,7.4-1.8,12.3
	c0.4,8,2.1,16.3,5.3,24.8c3.1,8.5,7.1,15.4,12,20.7c3.9,4.1,7.7,6.4,11.4,6.9s6.5-0.3,8.5-2.6c1.9-2.3,3.2-5.1,3.8-8.6
	C757.3,691.2,756.3,687.3,753.7,683.1z"/>
<path class="st0" d="M167.5,525.1c-10.3,11.8-22.4,20.4-36.6,24.8c27.6-17.8,30.3-60.7,5.3-84.5c-1.2-1.2-2.6-3.2-4.2-2.2
	c-2.1,1.4,0.1,3.1,0.7,4.6c5.3,13.5,4.9,26.3-3.2,39.4c-2-12-6.5-21.2-13.2-29.2c-4.9-5.9-10.2-11.6-14.9-17.7
	c-8.4-10.9-11-22.9-6.8-36c0.4-1.3,1.5-2.6,0.2-3.9c-1.4-1.5-2.8-0.3-4.1,0.2c-21.4,9.2-27.6,38.5-12.3,58.7c3,3.9,6.2,7.6,9.2,11.5
	c6.1,8,7.2,16.8,5.1,26.2c-0.7,3.1-1.6,3.8-4.6,2.5c-13.5-5.7-23.5-20.7-24.2-36.2c-0.1-1.9,1.7-5.3-1.4-5.9c-2.5-0.5-2.3,3.2-3.4,5
	c-0.3,0.6-0.5,1.3-0.7,2c-6.6,20.7-0.1,44.6,16,59.2c4.9,4.5,10.4,7.8,16.1,10h-0.8c-8.6-0.9-17-2.9-24.9-6.6
	c-22.5-10.5-36.6-28.2-45.2-51c-16.5-36.3-0.1-82.6,7.4-97c15.5-29.8,37.4-53.7,65.9-71.3c7.9-4.8,16.8-8.2,30.3-14l10.2-3.7
	c0.8,2.3-0.6,4.1-1.6,5.8c-6.1,11.7-14.7,45.1-14.7,45.4c-1.5,7.6-6.2,15.8,0.7,12.3c3.1-1.6,13.5-9.3,16.3-11.4
	c6.2-4.7,11.3-13.6,10.3-7.5c-1.2,7.2-6.2,27.6-5.9,35c0.4,10.9,3.5,20.4,11.7,28.2c6.8,6.5,13.5,13.1,19.7,20.3
	C184.6,458.5,194.3,497.5,167.5,525.1z"/>
<path class="st0" d="M694.8,456.9c10.3,11.8,22.4,20.4,36.6,24.8c-27.6-17.8-30.3-60.7-5.3-84.5c1.2-1.2,2.6-3.2,4.2-2.2
	c2.1,1.4-0.1,3.1-0.7,4.6c-5.3,13.5-4.9,26.3,3.2,39.4c2-12,6.5-21.2,13.2-29.2c4.9-5.9,10.2-11.6,14.9-17.7
	c8.4-10.9,11-22.9,6.8-36c-0.4-1.3-1.5-2.6-0.2-3.9c1.4-1.5,2.8-0.3,4.1,0.2c21.4,9.2,27.6,38.5,12.3,58.7c-3,3.9-6.2,7.6-9.2,11.5
	c-6.1,8-7.2,16.8-5.1,26.2c0.7,3.1,1.6,3.8,4.6,2.5c13.5-5.7,23.5-20.7,24.2-36.2c0.1-1.9-1.7-5.3,1.4-5.9c2.5-0.5,2.3,3.2,3.4,5
	c0.3,0.6,0.5,1.3,0.7,2c6.6,20.7,0.1,44.6-16,59.2c-4.9,4.5-10.4,7.8-16.1,10h0.8c8.6-0.9,17-2.9,24.9-6.6
	c22.5-10.5,36.6-28.2,45.2-51c16.6-36.5,0.2-82.8-7.3-97.2c-15.5-29.8-37.4-53.7-65.9-71.3c-7.9-4.8-16.8-8.2-30.3-14l-10.2-3.7
	c-0.8,2.3,0.6,4.1,1.6,5.8c6.1,11.7,14.7,45.1,14.7,45.4c1.5,7.6,6.2,15.8-0.7,12.3c-3.1-1.6-13.5-9.3-16.3-11.4
	c-6.2-4.7-11.3-13.6-10.3-7.5c1.2,7.2,6.2,27.6,5.9,35c-0.4,10.9-3.5,20.4-11.7,28.2c-6.8,6.5-13.5,13.1-19.7,20.3
	C677.7,390.4,668.1,429.3,694.8,456.9z"/>
</svg>
