<svg version="1.1" id="svg8" xmlns:svg="http://www.w3.org/2000/svg" xmlns:rdf="http://www.w3.org/1999/02/22-rdf-syntax-ns#" xmlns:cc="http://creativecommons.org/ns#" xmlns:dc="http://purl.org/dc/elements/1.1/" xmlns="http://www.w3.org/2000/svg" xmlns:xlink="http://www.w3.org/1999/xlink" x="0px" y="0px" viewBox="0 0 40.645 17.702" enable-background="new 0 0 40.645 17.702" xml:space="preserve">
<path id="path4264" fill="#EE1E6E" d="M3.122,17.642V16.28H1.747v1.362H1.003v-3.388h0.745v1.342h1.375v-1.342h0.745v3.388H3.122z"></path>
<path id="path4266" fill="#EE1E6E" d="M5.487,17.642v-3.388h2.549v0.664H6.225v0.684h1.597v0.664H6.225v0.711h1.838v0.664
L5.487,17.642z"></path>
<path id="path4268" fill="#EE1E6E" d="M12.494,17.642l-0.309-0.758H10.75l-0.309,0.758H9.683l1.449-3.414h0.684l1.456,3.414H12.494z
M11.467,15.126l-0.449,1.1h0.899L11.467,15.126z"></path>
<path id="path4270" fill="#EE1E6E" d="M16.945,17.642l-0.724-1.087h-0.584v1.087h-0.745v-3.388h1.55c0.402,0,0.718,0.1,0.939,0.295
c0.221,0.194,0.335,0.47,0.335,0.825v0.016c0,0.275-0.067,0.497-0.201,0.671c-0.134,0.174-0.309,0.302-0.523,0.382l0.825,1.208
h-0.872L16.945,17.642z M16.965,15.414c0-0.161-0.054-0.282-0.154-0.362c-0.101-0.081-0.248-0.12-0.429-0.12h-0.738v0.973h0.758
c0.181,0,0.322-0.047,0.423-0.135c0.101-0.088,0.148-0.201,0.148-0.349v-0.016L16.965,15.414z"></path>
<path id="path4272" fill="#EE1E6E" d="M21.215,14.945v2.697H20.47v-2.697h-1.033v-0.684h2.804v0.684H21.215z"></path>
<path id="path4274" fill="#EE1E6E" d="M23.861,17.642V16.87h0.778v0.771H23.861z"></path>
<path id="path4276" fill="#EE1E6E" d="M29.11,17.346c-0.094,0.073-0.194,0.141-0.309,0.188c-0.114,0.054-0.235,0.094-0.362,0.12
c-0.134,0.028-0.282,0.041-0.443,0.041c-0.248,0-0.476-0.047-0.691-0.135c-0.215-0.088-0.396-0.215-0.55-0.369
c-0.154-0.154-0.275-0.342-0.362-0.557c-0.087-0.215-0.134-0.443-0.134-0.684v-0.016c0-0.242,0.047-0.47,0.134-0.678
c0.087-0.215,0.208-0.396,0.362-0.557c0.154-0.161,0.342-0.288,0.557-0.376c0.215-0.094,0.456-0.141,0.718-0.141
c0.161,0,0.302,0.016,0.436,0.041c0.128,0.027,0.248,0.06,0.356,0.107c0.107,0.047,0.208,0.1,0.295,0.168
c0.087,0.067,0.174,0.135,0.248,0.215l-0.476,0.55c-0.134-0.12-0.268-0.215-0.403-0.282c-0.141-0.067-0.288-0.1-0.463-0.1
c-0.141,0-0.275,0.026-0.396,0.081c-0.121,0.053-0.228,0.135-0.309,0.228c-0.087,0.094-0.154,0.208-0.201,0.335
c-0.047,0.128-0.074,0.261-0.074,0.409v0.016c0,0.148,0.026,0.282,0.074,0.409c0.047,0.128,0.114,0.242,0.201,0.342
c0.087,0.094,0.188,0.174,0.309,0.228c0.121,0.053,0.255,0.088,0.402,0.088c0.194,0,0.356-0.034,0.49-0.107
c0.134-0.073,0.268-0.168,0.402-0.288l0.476,0.476c-0.1,0.1-0.194,0.181-0.288,0.255L29.11,17.346z"></path>
<path id="path4278" fill="#EE1E6E" d="M34.487,16.629c-0.094,0.215-0.215,0.396-0.376,0.557c-0.161,0.161-0.349,0.288-0.57,0.376
c-0.221,0.094-0.463,0.141-0.724,0.141s-0.503-0.047-0.718-0.141c-0.221-0.094-0.409-0.215-0.57-0.376
c-0.161-0.154-0.282-0.342-0.376-0.55c-0.087-0.208-0.134-0.436-0.134-0.678v-0.016c0-0.242,0.047-0.47,0.134-0.678
c0.087-0.215,0.215-0.396,0.376-0.557c0.161-0.161,0.349-0.288,0.57-0.376c0.221-0.088,0.463-0.141,0.724-0.141
s0.503,0.047,0.724,0.141c0.221,0.094,0.409,0.215,0.57,0.369c0.161,0.154,0.282,0.342,0.376,0.55
c0.087,0.215,0.134,0.436,0.134,0.678v0.016c-0.006,0.255-0.054,0.483-0.141,0.691L34.487,16.629z M33.843,15.951
c0-0.148-0.026-0.282-0.074-0.409c-0.047-0.128-0.121-0.242-0.215-0.342c-0.094-0.094-0.201-0.174-0.329-0.228
c-0.128-0.053-0.262-0.088-0.409-0.088c-0.154,0-0.288,0.027-0.416,0.081c-0.128,0.053-0.228,0.135-0.322,0.228
c-0.087,0.094-0.161,0.208-0.208,0.335c-0.047,0.128-0.074,0.261-0.074,0.409v0.016c0,0.148,0.026,0.282,0.074,0.409
c0.047,0.128,0.121,0.242,0.215,0.342c0.094,0.094,0.201,0.174,0.322,0.228c0.121,0.053,0.262,0.088,0.416,0.088
c0.148,0,0.288-0.026,0.409-0.081c0.128-0.053,0.235-0.135,0.322-0.228c0.087-0.094,0.161-0.208,0.208-0.335
c0.047-0.128,0.074-0.262,0.074-0.409v-0.016L33.843,15.951z"></path>
<path id="path4280" fill="#EE1E6E" d="M38.904,17.642v-2.214l-0.953,1.449h-0.02l-0.946-1.436v2.2h-0.738v-3.388h0.805l0.892,1.436
l0.892-1.436h0.805v3.388L38.904,17.642z"></path>
<path id="path4284" fill="#000000" d="M5.992,12.591c-2.208,0-4.497-0.545-5.717-1.388V8.45c1.157,1.032,3.659,2.039,5.76,2.039
c2.29,0,3.741-0.757,3.741-1.533c0-0.969-1.808-1.282-3.721-1.576C3.278,6.936,0,6.348,0,3.533c0-2.415,3.027-3.427,5.799-3.427
c1.952,0,4.097,0.419,5.191,1.239v2.502c-1.533-1.07-3.427-1.639-5.379-1.639c-1.007,0-3.172,0.275-3.172,1.345
c0,1.07,1.87,1.388,3.909,1.702c2.776,0.443,5.823,0.901,5.823,3.572C12.171,11.578,9.057,12.591,5.992,12.591L5.992,12.591z"></path>
<path id="path4286" fill="#000000" d="M20.207,8.763l2.497-3.88l-2.497,8.127L12.118,0.444h2.733L20.207,8.763z"></path>
<path id="path4288" fill="#000000" d="M40.645,6.874c0,3.847-3.278,5.717-7.274,5.717c-4.56,0-8.238-2.815-8.238-6.286
C25.133,2.834,28.811,0,33.371,0c2.058,0,4.015,0.632,5.567,1.702v3.09c-1.326-1.663-3.427-2.69-5.567-2.69
c-3.234,0-5.842,1.87-5.842,4.203s2.608,4.184,5.842,4.184c2.039,0,4.348-0.588,4.772-2.145H34.59V6.262h6.054L40.645,6.874z"></path>
<path id="path4290" fill="#EE1E6E" d="M25.384,0.858c-0.006-0.019-0.009-0.043-0.014-0.063c-0.048-0.207-0.169-0.4-0.333-0.54
c-0.217-0.188-0.516-0.289-0.805-0.241c-0.27,0.043-0.482,0.207-0.617,0.439c-0.063,0.106-0.096,0.231-0.111,0.362
c-0.014-0.13-0.048-0.255-0.111-0.362c-0.14-0.231-0.352-0.395-0.617-0.439c-0.284-0.043-0.588,0.052-0.805,0.241
c-0.164,0.14-0.28,0.333-0.333,0.54c-0.006,0.02-0.009,0.043-0.014,0.063C21.567,1.2,21.682,1.557,21.88,1.846
c0.212,0.304,0.501,0.545,0.795,0.771c0.294,0.227,0.593,0.453,0.824,0.742c0.231-0.289,0.535-0.511,0.824-0.742
c0.294-0.227,0.583-0.468,0.795-0.771C25.321,1.557,25.442,1.2,25.384,0.858L25.384,0.858z"></path>
</svg>